<svg width="24" height="24" viewBox="0 0 24 24" fill="none" xmlns="http://www.w3.org/2000/svg">
<path d="M19.4961 3.32971H17.2461V2.57971C17.2461 2.3808 17.1671 2.19003 17.0264 2.04938C16.8858 1.90873 16.695 1.82971 16.4961 1.82971C16.2972 1.82971 16.1064 1.90873 15.9658 2.04938C15.8251 2.19003 15.7461 2.3808 15.7461 2.57971V3.32971H8.24609V2.57971C8.24609 2.3808 8.16708 2.19003 8.02642 2.04938C7.88577 1.90873 7.69501 1.82971 7.49609 1.82971C7.29718 1.82971 7.10642 1.90873 6.96576 2.04938C6.82511 2.19003 6.74609 2.3808 6.74609 2.57971V3.32971H4.49609C4.09827 3.32971 3.71674 3.48775 3.43543 3.76905C3.15413 4.05036 2.99609 4.43189 2.99609 4.82971V19.8297C2.99609 20.2275 3.15413 20.6091 3.43543 20.8904C3.71674 21.1717 4.09827 21.3297 4.49609 21.3297H19.4961C19.8939 21.3297 20.2754 21.1717 20.5568 20.8904C20.8381 20.6091 20.9961 20.2275 20.9961 19.8297V4.82971C20.9961 4.43189 20.8381 4.05036 20.5568 3.76905C20.2754 3.48775 19.8939 3.32971 19.4961 3.32971ZM6.74609 4.82971V5.57971C6.74609 5.77862 6.82511 5.96939 6.96576 6.11004C7.10642 6.25069 7.29718 6.32971 7.49609 6.32971C7.69501 6.32971 7.88577 6.25069 8.02642 6.11004C8.16708 5.96939 8.24609 5.77862 8.24609 5.57971V4.82971H15.7461V5.57971C15.7461 5.77862 15.8251 5.96939 15.9658 6.11004C16.1064 6.25069 16.2972 6.32971 16.4961 6.32971C16.695 6.32971 16.8858 6.25069 17.0264 6.11004C17.1671 5.96939 17.2461 5.77862 17.2461 5.57971V4.82971H19.4961V7.82971H4.49609V4.82971H6.74609ZM19.4961 19.8297H4.49609V9.32971H19.4961V19.8297Z" fill="#303338"/>
</svg>
