<svg width="97" height="96" viewBox="0 0 97 96" fill="none" xmlns="http://www.w3.org/2000/svg">
<path d="M92.3002 56.3999C91.985 56.6363 91.6263 56.8083 91.2447 56.9061C90.8631 57.0039 90.4659 57.0255 90.0759 56.9698C89.6859 56.9141 89.3107 56.7821 88.9717 56.5814C88.6327 56.3806 88.3365 56.1151 88.1002 55.7999C86.292 53.3694 83.9384 51.3974 81.2288 50.0426C78.5193 48.6879 75.5295 47.9882 72.5002 47.9999C71.9102 47.9999 71.3334 47.8259 70.8418 47.4997C70.3503 47.1736 69.9657 46.7097 69.7364 46.1662C69.5807 45.7971 69.5004 45.4005 69.5004 44.9999C69.5004 44.5993 69.5807 44.2028 69.7364 43.8337C69.9657 43.2902 70.3503 42.8263 70.8418 42.5001C71.3334 42.174 71.9102 42 72.5002 41.9999C74.1834 41.9998 75.8329 41.5276 77.2613 40.637C78.6896 39.7463 79.8396 38.473 80.5805 36.9616C81.3215 35.4502 81.6237 33.7612 81.4529 32.0867C81.2821 30.4121 80.6451 28.819 79.6143 27.4883C78.5834 26.1576 77.2 25.1426 75.6213 24.5587C74.0425 23.9749 72.3317 23.8454 70.683 24.1851C69.0344 24.5248 67.5141 25.3201 66.2948 26.4805C65.0754 27.641 64.206 29.1201 63.7852 30.7499C63.6867 31.1316 63.514 31.4901 63.2769 31.805C63.0399 32.1199 62.7431 32.3851 62.4036 32.5853C62.0641 32.7855 61.6885 32.9169 61.2982 32.972C60.9079 33.027 60.5106 33.0047 60.1289 32.9062C59.7472 32.8077 59.3887 32.635 59.0738 32.3979C58.7589 32.1609 58.4938 31.8641 58.2935 31.5246C58.0933 31.1851 57.9619 30.8095 57.9069 30.4192C57.8518 30.0289 57.8742 29.6316 57.9727 29.2499C58.5567 26.9899 59.6603 24.8973 61.1954 23.1388C62.7305 21.3802 64.6548 20.0042 66.8153 19.1203C68.9758 18.2363 71.3128 17.8688 73.6403 18.0469C75.9678 18.2251 78.2216 18.944 80.2224 20.1465C82.2232 21.349 83.9157 23.0018 85.1653 24.9735C86.4149 26.9452 87.1871 29.1813 87.4204 31.504C87.6537 33.8266 87.3417 36.1717 86.5092 38.3525C85.6768 40.5333 84.3468 42.4898 82.6252 44.0662C86.7044 45.8324 90.2506 48.6352 92.9114 52.1962C93.1478 52.5122 93.3195 52.8717 93.4167 53.2541C93.5139 53.6365 93.5347 54.0344 93.478 54.4249C93.4212 54.8154 93.2879 55.1908 93.0858 55.5297C92.8837 55.8686 92.6167 56.1644 92.3002 56.3999ZM72.0952 79.4999C72.3122 79.8414 72.458 80.2232 72.5236 80.6225C72.5893 81.0217 72.5735 81.4301 72.4773 81.8231C72.381 82.2161 72.2063 82.5855 71.9635 82.9092C71.7208 83.2329 71.415 83.5042 71.0647 83.7067C70.7144 83.9091 70.3268 84.0387 69.9252 84.0875C69.5235 84.1363 69.1161 84.1033 68.7275 83.9906C68.339 83.8778 67.9772 83.6877 67.664 83.4315C67.3508 83.1753 67.0927 82.8584 66.9052 82.4999C65.0153 79.2999 62.3238 76.648 59.0963 74.8057C55.8687 72.9634 52.2165 71.9945 48.5002 71.9945C44.7838 71.9945 41.1316 72.9634 37.9041 74.8057C34.6765 76.648 31.985 79.2999 30.0952 82.4999C29.9076 82.8584 29.6495 83.1753 29.3363 83.4315C29.0231 83.6877 28.6614 83.8778 28.2728 83.9906C27.8842 84.1033 27.4768 84.1363 27.0752 84.0875C26.6735 84.0387 26.2859 83.9091 25.9356 83.7067C25.5853 83.5042 25.2796 83.2329 25.0368 82.9092C24.7941 82.5855 24.6193 82.2161 24.523 81.8231C24.4268 81.4301 24.411 81.0217 24.4767 80.6225C24.5423 80.2232 24.6881 79.8414 24.9052 79.4999C27.8137 74.5026 32.2484 70.57 37.5577 68.2799C34.5701 65.9926 32.3745 62.8265 31.2794 59.2268C30.1843 55.6271 30.2448 51.7747 31.4523 48.2111C32.6599 44.6475 34.9538 41.5519 38.0117 39.3595C41.0695 37.167 44.7375 35.9879 48.5002 35.9879C52.2628 35.9879 55.9308 37.167 58.9887 39.3595C62.0465 41.5519 64.3404 44.6475 65.548 48.2111C66.7555 51.7747 66.816 55.6271 65.7209 59.2268C64.6258 62.8265 62.4302 65.9926 59.4427 68.2799C64.7519 70.57 69.1867 74.5026 72.0952 79.4999ZM48.5002 65.9999C50.8735 65.9999 53.1936 65.2961 55.167 63.9776C57.1404 62.659 58.6785 60.7848 59.5867 58.5921C60.495 56.3994 60.7326 53.9866 60.2696 51.6589C59.8066 49.3311 58.6637 47.1929 56.9854 45.5147C55.3072 43.8364 53.169 42.6935 50.8412 42.2305C48.5135 41.7675 46.1007 42.0051 43.908 42.9134C41.7152 43.8216 39.8411 45.3597 38.5225 47.3331C37.2039 49.3065 36.5002 51.6266 36.5002 53.9999C36.5002 57.1825 37.7644 60.2348 40.0149 62.4852C42.2653 64.7356 45.3176 65.9999 48.5002 65.9999ZM27.5002 44.9999C27.5002 44.2043 27.1841 43.4412 26.6215 42.8786C26.0589 42.316 25.2958 41.9999 24.5002 41.9999C22.8169 41.9998 21.1674 41.5276 19.739 40.637C18.3107 39.7463 17.1607 38.473 16.4198 36.9616C15.6788 35.4502 15.3766 33.7612 15.5474 32.0867C15.7182 30.4121 16.3552 28.819 17.3861 27.4883C18.4169 26.1576 19.8003 25.1426 21.379 24.5587C22.9578 23.9749 24.6686 23.8454 26.3173 24.1851C27.9659 24.5248 29.4862 25.3201 30.7056 26.4805C31.9249 27.641 32.7943 29.1201 33.2152 30.7499C33.4141 31.5207 33.911 32.1809 34.5967 32.5853C35.2824 32.9897 36.1006 33.1051 36.8714 32.9062C37.6422 32.7073 38.3024 32.2103 38.7068 31.5246C39.1111 30.839 39.2266 30.0207 39.0277 29.2499C38.4436 26.9899 37.3401 24.8973 35.805 23.1388C34.2698 21.3802 32.3455 20.0042 30.185 19.1203C28.0245 18.2363 25.6875 17.8688 23.36 18.0469C21.0325 18.2251 18.7787 18.944 16.7779 20.1465C14.7771 21.349 13.0846 23.0018 11.835 24.9735C10.5854 26.9452 9.81323 29.1813 9.57992 31.504C9.34661 33.8266 9.6586 36.1717 10.4911 38.3525C11.3235 40.5333 12.6535 42.4898 14.3752 44.0662C10.3 45.8341 6.75784 48.6368 4.10016 52.1962C3.62227 52.8327 3.41682 53.633 3.52899 54.421C3.64116 55.209 4.06177 55.9202 4.69829 56.3981C5.33481 56.8759 6.1351 57.0814 6.9231 56.9692C7.7111 56.8571 8.42227 56.4365 8.90016 55.7999C10.7084 53.3694 13.062 51.3974 15.7715 50.0426C18.481 48.6879 21.4708 47.9882 24.5002 47.9999C25.2958 47.9999 26.0589 47.6839 26.6215 47.1213C27.1841 46.5586 27.5002 45.7956 27.5002 44.9999Z" fill="url(#paint0_linear_1812_8324)"/>
<defs>
<linearGradient id="paint0_linear_1812_8324" x1="48.6353" y1="84.1094" x2="48.6353" y2="18.0032" gradientUnits="userSpaceOnUse">
<stop stop-color="#6771FC"/>
<stop offset="1" stop-color="#E3A0D8"/>
</linearGradient>
</defs>
</svg>
