<svg width="65" height="64" viewBox="0 0 65 64" fill="none" xmlns="http://www.w3.org/2000/svg">
<path d="M58.6228 53.8775L46.7503 42C50.3101 37.3612 51.972 31.542 51.3991 25.7229C50.8261 19.9038 48.0611 14.5204 43.6649 10.665C39.2688 6.80955 33.5707 4.77066 27.7266 4.96192C21.8825 5.15319 16.3299 7.56029 12.1952 11.6949C8.06059 15.8296 5.65349 21.3821 5.46223 27.2263C5.27096 33.0704 7.30985 38.7685 11.1653 43.1646C15.0208 47.5608 20.4041 50.3258 26.2232 50.8988C32.0423 51.4717 37.8615 49.8098 42.5003 46.25L54.3828 58.135C54.6619 58.4141 54.9932 58.6354 55.3578 58.7865C55.7224 58.9375 56.1132 59.0152 56.5078 59.0152C56.9025 59.0152 57.2933 58.9375 57.6579 58.7865C58.0225 58.6354 58.3538 58.4141 58.6328 58.135C58.9119 57.856 59.1333 57.5247 59.2843 57.1601C59.4353 56.7955 59.513 56.4047 59.513 56.01C59.513 55.6154 59.4353 55.2246 59.2843 54.86C59.1333 54.4954 58.9119 54.1641 58.6328 53.885L58.6228 53.8775ZM11.5003 28C11.5003 24.6377 12.4974 21.351 14.3653 18.5553C16.2333 15.7597 18.8884 13.5808 21.9947 12.2941C25.1011 11.0074 28.5192 10.6707 31.8169 11.3267C35.1145 11.9826 38.1437 13.6017 40.5211 15.9792C42.8986 18.3567 44.5177 21.3858 45.1737 24.6835C45.8296 27.9812 45.493 31.3993 44.2063 34.5056C42.9196 37.612 40.7407 40.267 37.945 42.135C35.1494 44.003 31.8626 45 28.5003 45C23.9931 44.9954 19.6717 43.2028 16.4846 40.0157C13.2975 36.8286 11.505 32.5073 11.5003 28Z" fill="url(#paint0_linear_742_7020)"/>
<path d="M39.9787 21.8547C40.144 22.0198 40.2751 22.2158 40.3645 22.4316C40.454 22.6474 40.5 22.8787 40.5 23.1122C40.5 23.3458 40.454 23.5771 40.3645 23.7929C40.2751 24.0087 40.144 24.2047 39.9787 24.3698L27.5356 36.8121C27.3705 36.9773 27.1745 37.1084 26.9587 37.1979C26.7429 37.2873 26.5116 37.3334 26.278 37.3334C26.0444 37.3334 25.8131 37.2873 25.5973 37.1979C25.3815 37.1084 25.1854 36.9773 25.0204 36.8121L19.6876 31.4797C19.3541 31.1461 19.1667 30.6938 19.1667 30.2221C19.1667 29.7504 19.3541 29.2981 19.6876 28.9645C20.0212 28.631 20.4735 28.4437 20.9453 28.4437C21.417 28.4437 21.8693 28.631 22.2029 28.9645L26.278 33.0416L37.4634 21.8547C37.6285 21.6894 37.8245 21.5583 38.0403 21.4689C38.2561 21.3794 38.4874 21.3334 38.721 21.3334C38.9546 21.3334 39.186 21.3794 39.4018 21.4689C39.6175 21.5583 39.8136 21.6894 39.9787 21.8547Z" fill="url(#paint1_linear_742_7020)"/>
<defs>
<linearGradient id="paint0_linear_742_7020" x1="32.5603" y1="59.0152" x2="32.5603" y2="4.94957" gradientUnits="userSpaceOnUse">
<stop stop-color="#6771FC"/>
<stop offset="1" stop-color="#E3A0D8"/>
</linearGradient>
<linearGradient id="paint1_linear_742_7020" x1="29.8645" y1="37.3334" x2="29.8645" y2="21.3334" gradientUnits="userSpaceOnUse">
<stop stop-color="#6771FC"/>
<stop offset="1" stop-color="#E3A0D8"/>
</linearGradient>
</defs>
</svg>
