<svg width="25" height="25" viewBox="0 0 25 25" fill="none" xmlns="http://www.w3.org/2000/svg">
<g filter="url(#filter0_d_3687_4148)">
<path d="M15.5781 2.32506C15.4521 2.26424 15.3115 2.23991 15.1723 2.25482C15.0332 2.26973 14.9009 2.32329 14.7906 2.40943L8.2375 7.50006H4C3.60218 7.50006 3.22064 7.65809 2.93934 7.9394C2.65804 8.2207 2.5 8.60223 2.5 9.00006V15.0001C2.5 15.3979 2.65804 15.7794 2.93934 16.0607C3.22064 16.342 3.60218 16.5001 4 16.5001H8.2375L14.7906 21.5907C14.9215 21.694 15.0833 21.7501 15.25 21.7501C15.3635 21.7487 15.4753 21.7231 15.5781 21.6751C15.7047 21.6135 15.8114 21.5175 15.886 21.3981C15.9606 21.2788 16.0001 21.1408 16 21.0001V3.00006C16.0001 2.85929 15.9606 2.72134 15.886 2.60197C15.8114 2.4826 15.7047 2.38664 15.5781 2.32506Z" fill="white"/>
<path d="M19 9C18.8011 9 18.6103 9.07902 18.4697 9.21967C18.329 9.36032 18.25 9.55109 18.25 9.75V14.25C18.25 14.4489 18.329 14.6397 18.4697 14.7803C18.6103 14.921 18.8011 15 19 15C19.1989 15 19.3897 14.921 19.5303 14.7803C19.671 14.6397 19.75 14.4489 19.75 14.25V9.75C19.75 9.55109 19.671 9.36032 19.5303 9.21967C19.3897 9.07902 19.1989 9 19 9Z" fill="white"/>
<path d="M22 7.5C21.8011 7.5 21.6103 7.57902 21.4697 7.71967C21.329 7.86032 21.25 8.05109 21.25 8.25V15.75C21.25 15.9489 21.329 16.1397 21.4697 16.2803C21.6103 16.421 21.8011 16.5 22 16.5C22.1989 16.5 22.3897 16.421 22.5303 16.2803C22.671 16.1397 22.75 15.9489 22.75 15.75V8.25C22.75 8.05109 22.671 7.86032 22.5303 7.71967C22.3897 7.57902 22.1989 7.5 22 7.5Z" fill="white"/>
</g>
<defs>
<filter id="filter0_d_3687_4148" x="-1" y="-1" width="28" height="28" filterUnits="userSpaceOnUse" color-interpolation-filters="sRGB">
<feFlood flood-opacity="0" result="BackgroundImageFix"/>
<feColorMatrix in="SourceAlpha" type="matrix" values="0 0 0 0 0 0 0 0 0 0 0 0 0 0 0 0 0 0 127 0" result="hardAlpha"/>
<feOffset dy="1"/>
<feGaussianBlur stdDeviation="1"/>
<feComposite in2="hardAlpha" operator="out"/>
<feColorMatrix type="matrix" values="0 0 0 0 0 0 0 0 0 0 0 0 0 0 0 0 0 0 0.1 0"/>
<feBlend mode="normal" in2="BackgroundImageFix" result="effect1_dropShadow_3687_4148"/>
<feBlend mode="normal" in="SourceGraphic" in2="effect1_dropShadow_3687_4148" result="shape"/>
</filter>
</defs>
</svg>
