<svg width="24" height="24" viewBox="0 0 24 24" fill="none" xmlns="http://www.w3.org/2000/svg">
<path fill-rule="evenodd" clip-rule="evenodd" d="M12.5303 3.96967C12.8232 4.26256 12.8232 4.73744 12.5303 5.03033L5.56066 12L12.5303 18.9697C12.8232 19.2626 12.8232 19.7374 12.5303 20.0303C12.2374 20.3232 11.7626 20.3232 11.4697 20.0303L3.96967 12.5303C3.67678 12.2374 3.67678 11.7626 3.96967 11.4697L11.4697 3.96967C11.7626 3.67678 12.2374 3.67678 12.5303 3.96967Z" fill="#303338"/>
<path fill-rule="evenodd" clip-rule="evenodd" d="M5.25 12C5.25 11.5858 5.58579 11.25 6 11.25L19 11.25C19.4142 11.25 19.75 11.5858 19.75 12C19.75 12.4142 19.4142 12.75 19 12.75L6 12.75C5.58579 12.75 5.25 12.4142 5.25 12Z" fill="#303338"/>
</svg>
