<svg width="25" height="24" viewBox="0 0 25 24" fill="none" xmlns="http://www.w3.org/2000/svg">
<path d="M24.0961 6.50235C23.9765 6.43824 23.8418 6.40779 23.7062 6.41423C23.5707 6.42067 23.4394 6.46376 23.3264 6.53891L19.9927 8.75704V6.4086C19.9927 6.01078 19.8346 5.62924 19.5533 5.34794C19.272 5.06664 18.8905 4.9086 18.4927 4.9086H3.49268C3.09485 4.9086 2.71332 5.06664 2.43202 5.34794C2.15071 5.62924 1.99268 6.01078 1.99268 6.4086V16.9086C1.99268 17.3064 2.15071 17.688 2.43202 17.9693C2.71332 18.2506 3.09485 18.4086 3.49268 18.4086H18.4927C18.8905 18.4086 19.272 18.2506 19.5533 17.9693C19.8346 17.688 19.9927 17.3064 19.9927 16.9086V14.5648L23.3264 16.7877C23.4502 16.8681 23.595 16.9101 23.7427 16.9086C23.9416 16.9086 24.1324 16.8296 24.273 16.6889C24.4137 16.5483 24.4927 16.3575 24.4927 16.1586V7.1586C24.4917 7.02365 24.4544 6.89146 24.3846 6.77597C24.3148 6.66047 24.2151 6.56594 24.0961 6.50235ZM18.4927 16.9086H3.49268V6.4086H18.4927V16.9086ZM22.9927 14.757L19.9927 12.7573V10.5598L22.9927 8.56485V14.757Z" fill="#303338"/>
</svg>
