<svg width="97" height="96" viewBox="0 0 97 96" fill="none" xmlns="http://www.w3.org/2000/svg">
<path d="M83.6746 65.9775C81.5933 62.3925 78.4996 52.2487 78.4996 39C78.4996 31.0435 75.3389 23.4129 69.7128 17.7868C64.0867 12.1607 56.4561 9 48.4996 9C40.5431 9 32.9125 12.1607 27.2864 17.7868C21.6603 23.4129 18.4996 31.0435 18.4996 39C18.4996 52.2525 15.4021 62.3925 13.3208 65.9775C12.7893 66.8889 12.5076 67.9244 12.5039 68.9794C12.5003 70.0345 12.775 71.0718 13.3002 71.9868C13.8254 72.9019 14.5826 73.6622 15.4955 74.1913C16.4083 74.7203 17.4445 74.9992 18.4996 75H33.8033C34.4955 78.3868 36.3362 81.4307 39.0141 83.6167C41.692 85.8027 45.0427 86.9966 48.4996 86.9966C51.9564 86.9966 55.3072 85.8027 57.9851 83.6167C60.663 81.4307 62.5037 78.3868 63.1958 75H78.4996C79.5543 74.9986 80.59 74.7191 81.5024 74.1899C82.4147 73.6606 83.1714 72.9001 83.6961 71.9852C84.2209 71.0703 84.4952 70.0332 84.4914 68.9785C84.4876 67.9237 84.2059 66.8886 83.6746 65.9775ZM48.4996 81C46.6389 80.9994 44.8241 80.4222 43.3051 79.3477C41.786 78.2732 40.6373 76.7543 40.0171 75H56.9821C56.3618 76.7543 55.2131 78.2732 53.6941 79.3477C52.175 80.4222 50.3602 80.9994 48.4996 81ZM18.4996 69C21.3871 64.035 24.4996 52.53 24.4996 39C24.4996 32.6348 27.0281 26.5303 31.529 22.0294C36.0299 17.5286 42.1344 15 48.4996 15C54.8648 15 60.9693 17.5286 65.4701 22.0294C69.971 26.5303 72.4996 32.6348 72.4996 39C72.4996 52.5187 75.6046 64.0238 78.4996 69H18.4996Z" fill="url(#paint0_linear_1812_8520)"/>
<defs>
<linearGradient id="paint0_linear_1812_8520" x1="48.6026" y1="86.9966" x2="48.6026" y2="8.99998" gradientUnits="userSpaceOnUse">
<stop stop-color="#6771FC"/>
<stop offset="1" stop-color="#E3A0D8"/>
</linearGradient>
</defs>
</svg>
