<svg width="22" height="19" viewBox="0 0 22 19" fill="none" xmlns="http://www.w3.org/2000/svg">
<path d="M15.7009 0.193359C13.765 0.193359 12.07 1.02586 11.0134 2.43305C9.95687 1.02586 8.26187 0.193359 6.32593 0.193359C4.78489 0.195096 3.30747 0.808041 2.21779 1.89772C1.12811 2.9874 0.515165 4.46482 0.513428 6.00586C0.513428 12.5684 10.2437 17.8802 10.6581 18.0996C10.7673 18.1584 10.8894 18.1891 11.0134 18.1891C11.1374 18.1891 11.2595 18.1584 11.3687 18.0996C11.7831 17.8802 21.5134 12.5684 21.5134 6.00586C21.5117 4.46482 20.8987 2.9874 19.8091 1.89772C18.7194 0.808041 17.242 0.195096 15.7009 0.193359ZM11.0134 16.5809C9.30155 15.5834 2.01343 11.0393 2.01343 6.00586C2.01492 4.86257 2.46975 3.76653 3.27817 2.95811C4.0866 2.14968 5.18264 1.69485 6.32593 1.69336C8.14937 1.69336 9.6803 2.66461 10.3197 4.22461C10.3762 4.36217 10.4723 4.47982 10.5958 4.56262C10.7194 4.64542 10.8647 4.68963 11.0134 4.68963C11.1621 4.68963 11.3075 4.64542 11.431 4.56262C11.5545 4.47982 11.6507 4.36217 11.7072 4.22461C12.3466 2.6618 13.8775 1.69336 15.7009 1.69336C16.8442 1.69485 17.9403 2.14968 18.7487 2.95811C19.5571 3.76653 20.0119 4.86257 20.0134 6.00586C20.0134 11.0318 12.7234 15.5824 11.0134 16.5809Z" fill="#303338"/>
</svg>
