<svg width="18" height="19" viewBox="0 0 18 19" fill="none" xmlns="http://www.w3.org/2000/svg">
<path d="M17.8738 9.4355C17.8737 9.19423 17.8093 8.95735 17.6872 8.74924C17.5652 8.54114 17.3898 8.36935 17.1793 8.25155L17.1703 8.24255L2.1652 0.223618C1.92391 0.0901151 1.64768 0.0332834 1.37329 0.0606907C1.09889 0.088098 0.839362 0.198444 0.629248 0.377034C0.419134 0.555624 0.26841 0.793984 0.197146 1.06037C0.125882 1.32676 0.137459 1.60854 0.230337 1.86819L2.9335 9.4355L0.230337 17.0028C0.142671 17.244 0.125848 17.5053 0.181853 17.7558C0.237861 18.0063 0.364359 18.2355 0.546416 18.4165C0.574006 18.4441 0.602794 18.4704 0.632783 18.4956C0.842131 18.6736 1.10091 18.7833 1.37439 18.81C1.64788 18.8367 1.92298 18.7791 2.1628 18.645L17.1655 10.6236C17.1685 10.6206 17.1715 10.6176 17.1745 10.6146C17.3852 10.4979 17.5611 10.3271 17.684 10.1199C17.8069 9.91264 17.8724 9.67643 17.8738 9.4355ZM1.52044 17.4532L1.50905 17.4586L4.13185 10.1144L9.79908 10.1138C9.97598 10.1093 10.1441 10.0359 10.2676 9.90913C10.3911 9.78241 10.4603 9.61246 10.4603 9.4355C10.4603 9.25854 10.3911 9.08858 10.2676 8.96186C10.1441 8.83514 9.97598 8.76169 9.79908 8.75716L4.13185 8.75656L1.50845 1.41176L1.51684 1.42016L16.5159 9.4355L1.52044 17.4532Z" fill="white"/>
</svg>
