<svg width="65" height="64" viewBox="0 0 65 64" fill="none" xmlns="http://www.w3.org/2000/svg">
<path d="M58.6228 53.8774L46.7503 41.9999C50.3101 37.3611 51.972 31.5419 51.3991 25.7228C50.8261 19.9036 48.0611 14.5203 43.6649 10.6649C39.2688 6.80943 33.5707 4.77053 27.7266 4.9618C21.8825 5.15306 16.3299 7.56016 12.1952 11.6948C8.06059 15.8294 5.65349 21.382 5.46223 27.2262C5.27096 33.0703 7.30985 38.7684 11.1653 43.1645C15.0208 47.5607 20.4041 50.3257 26.2232 50.8986C32.0423 51.4716 37.8615 49.8097 42.5003 46.2499L54.3828 58.1349C54.6619 58.414 54.9932 58.6353 55.3578 58.7863C55.7224 58.9374 56.1132 59.0151 56.5078 59.0151C56.9025 59.0151 57.2933 58.9374 57.6579 58.7863C58.0225 58.6353 58.3538 58.414 58.6328 58.1349C58.9119 57.8558 59.1333 57.5246 59.2843 57.1599C59.4353 56.7953 59.513 56.4045 59.513 56.0099C59.513 55.6152 59.4353 55.2245 59.2843 54.8599C59.1333 54.4953 58.9119 54.164 58.6328 53.8849L58.6228 53.8774ZM11.5003 27.9999C11.5003 24.6376 12.4974 21.3508 14.3653 18.5552C16.2333 15.7596 18.8884 13.5806 21.9947 12.294C25.1011 11.0073 28.5192 10.6706 31.8169 11.3266C35.1145 11.9825 38.1437 13.6016 40.5211 15.9791C42.8986 18.3566 44.5177 21.3857 45.1737 24.6834C45.8296 27.981 45.493 31.3992 44.2063 34.5055C42.9196 37.6119 40.7407 40.2669 37.945 42.1349C35.1494 44.0029 31.8626 44.9999 28.5003 44.9999C23.9931 44.9953 19.6717 43.2027 16.4846 40.0156C13.2975 36.8285 11.505 32.5072 11.5003 27.9999Z" fill="url(#paint0_linear_742_7024)"/>
<path d="M21.8334 20.6666C21.8334 19.562 22.7288 18.6666 23.8334 18.6666C24.9379 18.6666 25.8334 19.562 25.8334 20.6666V35.3333C25.8334 36.4378 24.9379 37.3333 23.8334 37.3333C22.7288 37.3333 21.8334 36.4378 21.8334 35.3333V20.6666Z" fill="url(#paint1_linear_742_7024)"/>
<path d="M31.1667 20.6666C31.1667 19.562 32.0621 18.6666 33.1667 18.6666C34.2713 18.6666 35.1667 19.562 35.1667 20.6666V35.3333C35.1667 36.4378 34.2713 37.3333 33.1667 37.3333C32.0621 37.3333 31.1667 36.4378 31.1667 35.3333V20.6666Z" fill="url(#paint2_linear_742_7024)"/>
<defs>
<linearGradient id="paint0_linear_742_7024" x1="32.5603" y1="59.0151" x2="32.5603" y2="4.94945" gradientUnits="userSpaceOnUse">
<stop stop-color="#6771FC"/>
<stop offset="1" stop-color="#E3A0D8"/>
</linearGradient>
<linearGradient id="paint1_linear_742_7024" x1="32.5603" y1="59.0151" x2="32.5603" y2="4.94945" gradientUnits="userSpaceOnUse">
<stop stop-color="#6771FC"/>
<stop offset="1" stop-color="#E3A0D8"/>
</linearGradient>
<linearGradient id="paint2_linear_742_7024" x1="32.5603" y1="59.0151" x2="32.5603" y2="4.94945" gradientUnits="userSpaceOnUse">
<stop stop-color="#6771FC"/>
<stop offset="1" stop-color="#E3A0D8"/>
</linearGradient>
</defs>
</svg>
