<svg width="24" height="24" viewBox="0 0 24 24" fill="none" xmlns="http://www.w3.org/2000/svg">
<path d="M20.8599 11.5248C20.8599 11.7237 20.7808 11.9145 20.6402 12.0551C20.4995 12.1958 20.3088 12.2748 20.1099 12.2748H12.6099V19.7748C12.6099 19.9737 12.5308 20.1645 12.3902 20.3051C12.2495 20.4458 12.0588 20.5248 11.8599 20.5248C11.661 20.5248 11.4702 20.4458 11.3295 20.3051C11.1889 20.1645 11.1099 19.9737 11.1099 19.7748V12.2748H3.60986C3.41095 12.2748 3.22019 12.1958 3.07953 12.0551C2.93888 11.9145 2.85986 11.7237 2.85986 11.5248C2.85986 11.3259 2.93888 11.1351 3.07953 10.9945C3.22019 10.8538 3.41095 10.7748 3.60986 10.7748H11.1099V3.2748C11.1099 3.07588 11.1889 2.88512 11.3295 2.74447C11.4702 2.60381 11.661 2.5248 11.8599 2.5248C12.0588 2.5248 12.2495 2.60381 12.3902 2.74447C12.5308 2.88512 12.6099 3.07588 12.6099 3.2748V10.7748H20.1099C20.3088 10.7748 20.4995 10.8538 20.6402 10.9945C20.7808 11.1351 20.8599 11.3259 20.8599 11.5248Z" fill="black"/>
</svg>
