<svg width="24" height="24" viewBox="0 0 24 24" fill="none" xmlns="http://www.w3.org/2000/svg">
<path d="M20.7375 9.75179C20.4009 9.4 20.0527 9.0375 19.9214 8.71875C19.8 8.42679 19.7929 7.94286 19.7857 7.47411C19.7723 6.60268 19.758 5.61518 19.0714 4.92857C18.3848 4.24196 17.3973 4.22768 16.5259 4.21429C16.0571 4.20714 15.5732 4.2 15.2813 4.07857C14.9634 3.94732 14.6 3.59911 14.2482 3.2625C13.6321 2.67054 12.9321 2 12 2C11.0679 2 10.3688 2.67054 9.75179 3.2625C9.4 3.59911 9.0375 3.94732 8.71875 4.07857C8.42857 4.2 7.94286 4.20714 7.47411 4.21429C6.60268 4.22768 5.61518 4.24196 4.92857 4.92857C4.24196 5.61518 4.23214 6.60268 4.21429 7.47411C4.20714 7.94286 4.2 8.42679 4.07857 8.71875C3.94732 9.03661 3.59911 9.4 3.2625 9.75179C2.67054 10.3679 2 11.0679 2 12C2 12.9321 2.67054 13.6312 3.2625 14.2482C3.59911 14.6 3.94732 14.9625 4.07857 15.2813C4.2 15.5732 4.20714 16.0571 4.21429 16.5259C4.22768 17.3973 4.24196 18.3848 4.92857 19.0714C5.61518 19.758 6.60268 19.7723 7.47411 19.7857C7.94286 19.7929 8.42679 19.8 8.71875 19.9214C9.03661 20.0527 9.4 20.4009 9.75179 20.7375C10.3679 21.3295 11.0679 22 12 22C12.9321 22 13.6312 21.3295 14.2482 20.7375C14.6 20.4009 14.9625 20.0527 15.2813 19.9214C15.5732 19.8 16.0571 19.7929 16.5259 19.7857C17.3973 19.7723 18.3848 19.758 19.0714 19.0714C19.758 18.3848 19.7723 17.3973 19.7857 16.5259C19.7929 16.0571 19.8 15.5732 19.9214 15.2813C20.0527 14.9634 20.4009 14.6 20.7375 14.2482C21.3295 13.6321 22 12.9321 22 12C22 11.0679 21.3295 10.3688 20.7375 9.75179ZM12 17.7143C11.7881 17.7143 11.5809 17.6514 11.4047 17.5337C11.2286 17.416 11.0912 17.2487 11.0101 17.0529C10.929 16.8571 10.9078 16.6417 10.9492 16.4338C10.9905 16.226 11.0925 16.0351 11.2424 15.8852C11.3922 15.7354 11.5831 15.6334 11.791 15.592C11.9988 15.5507 12.2142 15.5719 12.41 15.653C12.6058 15.7341 12.7731 15.8714 12.8909 16.0476C13.0086 16.2238 13.0714 16.4309 13.0714 16.6429C13.0714 16.927 12.9585 17.1995 12.7576 17.4005C12.5567 17.6014 12.2842 17.7143 12 17.7143ZM12.7143 13.3643V13.4286C12.7143 13.618 12.639 13.7997 12.5051 13.9336C12.3711 14.0676 12.1894 14.1429 12 14.1429C11.8106 14.1429 11.6289 14.0676 11.4949 13.9336C11.361 13.7997 11.2857 13.618 11.2857 13.4286V12.7143C11.2857 12.5248 11.361 12.3432 11.4949 12.2092C11.6289 12.0753 11.8106 12 12 12C13.1813 12 14.1429 11.1964 14.1429 10.2143C14.1429 9.23214 13.1813 8.42857 12 8.42857C10.8188 8.42857 9.85714 9.23214 9.85714 10.2143V10.5714C9.85714 10.7609 9.78189 10.9426 9.64793 11.0765C9.51398 11.2105 9.3323 11.2857 9.14286 11.2857C8.95342 11.2857 8.77174 11.2105 8.63778 11.0765C8.50383 10.9426 8.42857 10.7609 8.42857 10.5714V10.2143C8.42857 8.44196 10.0304 7 12 7C13.9696 7 15.5714 8.44196 15.5714 10.2143C15.5714 11.7661 14.3429 13.0652 12.7143 13.3643Z" fill="#303338"/>
</svg>
