<svg width="24" height="24" viewBox="0 0 24 24" fill="none" xmlns="http://www.w3.org/2000/svg">
<path d="M20.7411 9.75C20.4018 9.40179 20.0536 9.03571 19.9196 8.72321C19.7857 8.41071 19.7946 7.94643 19.7857 7.47321C19.7768 6.60714 19.7589 5.61607 19.0714 4.92857C18.3839 4.24107 17.3929 4.22321 16.5268 4.21429C16.0536 4.20536 15.5714 4.19643 15.2768 4.08036C14.9821 3.96429 14.5982 3.59821 14.25 3.25893C13.6339 2.66964 12.9286 2 12 2C11.0714 2 10.3661 2.66964 9.75 3.25893C9.40179 3.59821 9.03571 3.94643 8.72321 4.08036C8.41071 4.21429 7.94643 4.20536 7.47321 4.21429C6.60714 4.22321 5.61607 4.24107 4.92857 4.92857C4.24107 5.61607 4.22321 6.60714 4.21429 7.47321C4.20536 7.94643 4.19643 8.42857 4.08036 8.72321C3.96429 9.01786 3.59821 9.40179 3.25893 9.75C2.66964 10.3661 2 11.0714 2 12C2 12.9286 2.66964 13.6339 3.25893 14.25C3.59821 14.5982 3.94643 14.9643 4.08036 15.2768C4.21429 15.5893 4.20536 16.0536 4.21429 16.5268C4.22321 17.3929 4.24107 18.3839 4.92857 19.0714C5.61607 19.7589 6.60714 19.7768 7.47321 19.7857C7.94643 19.7946 8.42857 19.8036 8.72321 19.9196C9.01786 20.0357 9.40179 20.4018 9.75 20.7411C10.3661 21.3304 11.0714 22 12 22C12.9286 22 13.6339 21.3304 14.25 20.7411C14.5982 20.4018 14.9643 20.0536 15.2768 19.9196C15.5893 19.7857 16.0536 19.7946 16.5268 19.7857C17.3929 19.7768 18.3839 19.7589 19.0714 19.0714C19.7589 18.3839 19.7768 17.3929 19.7857 16.5268C19.7946 16.0536 19.8036 15.5714 19.9196 15.2768C20.0357 14.9821 20.4018 14.5982 20.7411 14.25C21.3304 13.6339 22 12.9286 22 12C22 11.0714 21.3304 10.3661 20.7411 9.75Z" fill="url(#paint0_linear_346_195)"/>
<path fill-rule="evenodd" clip-rule="evenodd" d="M16.5427 9.2323C16.8286 9.532 16.8174 10.0067 16.5177 10.2927L11.0146 15.5427C10.7246 15.8193 10.2684 15.8191 9.97871 15.5422L7.23184 12.9172C6.93238 12.631 6.9216 12.1563 7.20778 11.8568C7.49395 11.5574 7.9687 11.5466 8.26817 11.8328L10.4973 13.963L15.4823 9.20734C15.782 8.92142 16.2567 8.93259 16.5427 9.2323Z" fill="white"/>
<defs>
<linearGradient id="paint0_linear_346_195" x1="12.0292" y1="22" x2="12.0292" y2="2" gradientUnits="userSpaceOnUse">
<stop stop-color="#6771FC"/>
<stop offset="1" stop-color="#E3A0D8"/>
</linearGradient>
</defs>
</svg>
