<svg width="24" height="24" viewBox="0 0 24 24" fill="none" xmlns="http://www.w3.org/2000/svg">
<path d="M11.6523 2.72849C9.72398 2.72849 7.83892 3.30031 6.23554 4.37166C4.63216 5.443 3.38248 6.96574 2.64452 8.74732C1.90657 10.5289 1.71349 12.4893 2.08969 14.3806C2.4659 16.2719 3.39449 18.0092 4.75806 19.3728C6.12162 20.7363 7.8589 21.6649 9.75022 22.0411C11.6415 22.4173 13.6019 22.2243 15.3835 21.4863C17.1651 20.7484 18.6878 19.4987 19.7592 17.8953C20.8305 16.2919 21.4023 14.4069 21.4023 12.4785C21.3996 9.89346 20.3715 7.4151 18.5436 5.58721C16.7157 3.75932 14.2374 2.73121 11.6523 2.72849ZM11.6523 20.7285C10.0207 20.7285 8.4256 20.2446 7.06889 19.3381C5.71219 18.4316 4.65476 17.1431 4.03034 15.6356C3.40592 14.1281 3.24254 12.4693 3.56087 10.869C3.8792 9.26865 4.66493 7.79864 5.81872 6.64485C6.9725 5.49107 8.44251 4.70533 10.0429 4.38701C11.6432 4.06868 13.302 4.23206 14.8095 4.85648C16.317 5.4809 17.6055 6.53833 18.512 7.89503C19.4185 9.25174 19.9023 10.8468 19.9023 12.4785C19.8999 14.6658 19.0299 16.7627 17.4832 18.3094C15.9366 19.856 13.8396 20.726 11.6523 20.7285ZM13.1523 16.9785C13.1523 17.1774 13.0733 17.3682 12.9327 17.5088C12.792 17.6495 12.6013 17.7285 12.4023 17.7285C12.0045 17.7285 11.623 17.5704 11.3417 17.2891C11.0604 17.0078 10.9023 16.6263 10.9023 16.2285V12.4785C10.7034 12.4785 10.5127 12.3995 10.372 12.2588C10.2314 12.1182 10.1523 11.9274 10.1523 11.7285C10.1523 11.5296 10.2314 11.3388 10.372 11.1982C10.5127 11.0575 10.7034 10.9785 10.9023 10.9785C11.3002 10.9785 11.6817 11.1365 11.963 11.4178C12.2443 11.6991 12.4023 12.0807 12.4023 12.4785V16.2285C12.6013 16.2285 12.792 16.3075 12.9327 16.4482C13.0733 16.5888 13.1523 16.7796 13.1523 16.9785ZM10.1523 8.35349C10.1523 8.13098 10.2183 7.91347 10.3419 7.72847C10.4656 7.54346 10.6413 7.39927 10.8468 7.31412C11.0524 7.22897 11.2786 7.20669 11.4968 7.2501C11.7151 7.29351 11.9155 7.40066 12.0728 7.55799C12.2302 7.71532 12.3373 7.91578 12.3807 8.13401C12.4241 8.35224 12.4019 8.57844 12.3167 8.784C12.2316 8.98957 12.0874 9.16527 11.9024 9.28889C11.7174 9.41251 11.4999 9.47849 11.2773 9.47849C10.979 9.47849 10.6928 9.35996 10.4819 9.14898C10.2709 8.938 10.1523 8.65185 10.1523 8.35349Z" fill="black"/>
</svg>
