<svg width="81" height="80" viewBox="0 0 81 80" fill="none" xmlns="http://www.w3.org/2000/svg">
<path d="M75.45 31.0071C74.1036 29.6 72.7107 28.15 72.1857 26.875C71.7 25.7071 71.6714 23.7714 71.6429 21.8964C71.5893 18.4107 71.5321 14.4607 68.7857 11.7143C66.0393 8.96786 62.0893 8.91071 58.6036 8.85714C56.7286 8.82857 54.7929 8.8 53.625 8.31429C52.3536 7.78929 50.9 6.39643 49.4929 5.05C47.0286 2.68214 44.2286 0 40.5 0C36.7714 0 33.975 2.68214 31.5071 5.05C30.1 6.39643 28.65 7.78929 27.375 8.31429C26.2143 8.8 24.2714 8.82857 22.3964 8.85714C18.9107 8.91071 14.9607 8.96786 12.2143 11.7143C9.46786 14.4607 9.42857 18.4107 9.35714 21.8964C9.32857 23.7714 9.3 25.7071 8.81429 26.875C8.28929 28.1464 6.89643 29.6 5.55 31.0071C3.18214 33.4714 0.5 36.2714 0.5 40C0.5 43.7286 3.18214 46.525 5.55 48.9929C6.89643 50.4 8.28929 51.85 8.81429 53.125C9.3 54.2929 9.32857 56.2286 9.35714 58.1036C9.41071 61.5893 9.46786 65.5393 12.2143 68.2857C14.9607 71.0321 18.9107 71.0893 22.3964 71.1429C24.2714 71.1714 26.2071 71.2 27.375 71.6857C28.6464 72.2107 30.1 73.6036 31.5071 74.95C33.9714 77.3179 36.7714 80 40.5 80C44.2286 80 47.025 77.3179 49.4929 74.95C50.9 73.6036 52.35 72.2107 53.625 71.6857C54.7929 71.2 56.7286 71.1714 58.6036 71.1429C62.0893 71.0893 66.0393 71.0321 68.7857 68.2857C71.5321 65.5393 71.5893 61.5893 71.6429 58.1036C71.6714 56.2286 71.7 54.2929 72.1857 53.125C72.7107 51.8536 74.1036 50.4 75.45 48.9929C77.8179 46.5286 80.5 43.7286 80.5 40C80.5 36.2714 77.8179 33.475 75.45 31.0071ZM40.5 62.8571C39.6524 62.8571 38.8238 62.6058 38.119 62.1349C37.4142 61.6639 36.8649 60.9946 36.5405 60.2115C36.2161 59.4284 36.1313 58.5667 36.2966 57.7353C36.462 56.904 36.8702 56.1403 37.4695 55.541C38.0689 54.9416 38.8326 54.5334 39.6639 54.3681C40.4952 54.2027 41.357 54.2876 42.1401 54.6119C42.9232 54.9363 43.5925 55.4856 44.0634 56.1904C44.5344 56.8952 44.7857 57.7238 44.7857 58.5714C44.7857 59.7081 44.3342 60.7982 43.5305 61.6019C42.7267 62.4056 41.6366 62.8571 40.5 62.8571ZM43.3571 45.4571V45.7143C43.3571 46.472 43.0561 47.1988 42.5203 47.7346C41.9845 48.2704 41.2578 48.5714 40.5 48.5714C39.7422 48.5714 39.0155 48.2704 38.4797 47.7346C37.9439 47.1988 37.6429 46.472 37.6429 45.7143V42.8571C37.6429 42.0994 37.9439 41.3727 38.4797 40.8368C39.0155 40.301 39.7422 40 40.5 40C45.225 40 49.0714 36.7857 49.0714 32.8571C49.0714 28.9286 45.225 25.7143 40.5 25.7143C35.775 25.7143 31.9286 28.9286 31.9286 32.8571V34.2857C31.9286 35.0435 31.6276 35.7702 31.0917 36.306C30.5559 36.8418 29.8292 37.1429 29.0714 37.1429C28.3137 37.1429 27.5869 36.8418 27.0511 36.306C26.5153 35.7702 26.2143 35.0435 26.2143 34.2857V32.8571C26.2143 25.7679 32.6214 20 40.5 20C48.3786 20 54.7857 25.7679 54.7857 32.8571C54.7857 39.0643 49.8714 44.2607 43.3571 45.4571Z" fill="url(#paint0_linear_230_257)"/>
<defs>
<linearGradient id="paint0_linear_230_257" x1="40.6166" y1="80" x2="40.6166" y2="-1.67462e-05" gradientUnits="userSpaceOnUse">
<stop stop-color="#676DFC"/>
<stop offset="1" stop-color="#E3A0D8"/>
</linearGradient>
</defs>
</svg>
