<svg width="24" height="24" viewBox="0 0 24 24" fill="none" xmlns="http://www.w3.org/2000/svg">
<path d="M22.5 19.8005H21V11.1333C21 10.9257 20.957 10.7204 20.8735 10.5303C20.7901 10.3402 20.6681 10.1695 20.5153 10.0289L13.0153 2.95269C13.0116 2.94949 13.0082 2.94604 13.005 2.94237C12.7289 2.69125 12.369 2.55209 11.9958 2.55209C11.6225 2.55209 11.2627 2.69125 10.9866 2.94237L10.9763 2.95269L3.48469 10.0289C3.33187 10.1695 3.20989 10.3402 3.12646 10.5303C3.04303 10.7204 2.99997 10.9257 3 11.1333V19.8005H1.5C1.30109 19.8005 1.11032 19.8795 0.96967 20.0202C0.829018 20.1608 0.75 20.3516 0.75 20.5505C0.75 20.7494 0.829018 20.9402 0.96967 21.0808C1.11032 21.2215 1.30109 21.3005 1.5 21.3005H22.5C22.6989 21.3005 22.8897 21.2215 23.0303 21.0808C23.171 20.9402 23.25 20.7494 23.25 20.5505C23.25 20.3516 23.171 20.1608 23.0303 20.0202C22.8897 19.8795 22.6989 19.8005 22.5 19.8005ZM4.5 11.1333L4.51031 11.1239L12 4.0505L19.4906 11.1221L19.5009 11.1314V19.8005H15V15.3005C15 14.9027 14.842 14.5211 14.5607 14.2398C14.2794 13.9585 13.8978 13.8005 13.5 13.8005H10.5C10.1022 13.8005 9.72064 13.9585 9.43934 14.2398C9.15804 14.5211 9 14.9027 9 15.3005V19.8005H4.5V11.1333ZM13.5 19.8005H10.5V15.3005H13.5V19.8005Z" fill="#303338"/>
</svg>
