<svg width="25" height="25" viewBox="0 0 25 25" fill="none" xmlns="http://www.w3.org/2000/svg">
<g filter="url(#filter0_d_3687_4142)">
<path d="M19 15C19.1989 15 19.3897 14.921 19.5303 14.7803C19.671 14.6397 19.75 14.4489 19.75 14.25V9.75C19.75 9.55109 19.671 9.36032 19.5303 9.21967C19.3897 9.07902 19.1989 9 19 9C18.8011 9 18.6103 9.07902 18.4697 9.21967C18.329 9.36032 18.25 9.55109 18.25 9.75V14.25C18.25 14.4489 18.329 14.6397 18.4697 14.7803C18.6103 14.921 18.8011 15 19 15Z" fill="#C1CACF"/>
<path d="M22 7.5C21.8011 7.5 21.6103 7.57902 21.4697 7.71967C21.329 7.86032 21.25 8.05109 21.25 8.25V15.75C21.25 15.9489 21.329 16.1397 21.4697 16.2803C21.6103 16.421 21.8011 16.5 22 16.5C22.1989 16.5 22.3897 16.421 22.5303 16.2803C22.671 16.1397 22.75 15.9489 22.75 15.75V8.25C22.75 8.05109 22.671 7.86032 22.5303 7.71967C22.3897 7.57902 22.1989 7.5 22 7.5Z" fill="#C1CACF"/>
<path d="M6.05313 3.24367C5.91763 3.10192 5.73199 3.01887 5.536 3.01232C5.34001 3.00577 5.14925 3.07625 5.00459 3.20865C4.85994 3.34105 4.77289 3.52484 4.7621 3.72064C4.75131 3.91644 4.81764 4.10868 4.94687 4.25617L7.9 7.49992H4C3.60218 7.49992 3.22064 7.65796 2.93934 7.93926C2.65804 8.22057 2.5 8.6021 2.5 8.99992V14.9999C2.5 15.3977 2.65804 15.7793 2.93934 16.0606C3.22064 16.3419 3.60218 16.4999 4 16.4999H8.24688L14.7906 21.5905C14.9221 21.6926 15.0835 21.7486 15.25 21.7499C15.3635 21.7486 15.4753 21.723 15.5781 21.6749C15.7047 21.6133 15.8114 21.5174 15.886 21.398C15.9606 21.2786 16.0001 21.1407 16 20.9999V16.4156L19.9469 20.7562C20.0171 20.833 20.1026 20.8943 20.1978 20.9362C20.293 20.9782 20.3959 20.9999 20.5 20.9999C20.6871 20.9981 20.8671 20.9281 21.0062 20.803C21.08 20.7372 21.1398 20.6574 21.1822 20.5681C21.2245 20.4788 21.2486 20.382 21.253 20.2832C21.2573 20.1845 21.2419 20.0859 21.2076 19.9933C21.1733 19.9006 21.1207 19.8157 21.0531 19.7437L6.05313 3.24367Z" fill="#C1CACF"/>
<path d="M14.697 10.5187C14.7669 10.596 14.8523 10.6576 14.9476 10.6996C15.0429 10.7416 15.146 10.763 15.2502 10.7625C15.343 10.7652 15.4355 10.7493 15.522 10.7156C15.6635 10.6606 15.785 10.5639 15.8704 10.4383C15.9557 10.3128 16.001 10.1643 16.0002 10.0125V2.99997C15.9997 2.85988 15.9601 2.7227 15.8857 2.60398C15.8113 2.48526 15.7052 2.38975 15.5793 2.32827C15.4534 2.26679 15.3128 2.2418 15.1734 2.25613C15.0341 2.27046 14.9015 2.32354 14.7908 2.40935L11.0502 5.3156C10.9697 5.37992 10.9033 5.45993 10.8547 5.55075C10.8062 5.64157 10.7767 5.74132 10.7679 5.84392C10.7591 5.94652 10.7713 6.04983 10.8037 6.14757C10.8361 6.24531 10.8881 6.33544 10.9564 6.41247L14.697 10.5187Z" fill="#C1CACF"/>
</g>
<defs>
<filter id="filter0_d_3687_4142" x="-1" y="-1" width="28" height="28" filterUnits="userSpaceOnUse" color-interpolation-filters="sRGB">
<feFlood flood-opacity="0" result="BackgroundImageFix"/>
<feColorMatrix in="SourceAlpha" type="matrix" values="0 0 0 0 0 0 0 0 0 0 0 0 0 0 0 0 0 0 127 0" result="hardAlpha"/>
<feOffset dy="1"/>
<feGaussianBlur stdDeviation="1"/>
<feComposite in2="hardAlpha" operator="out"/>
<feColorMatrix type="matrix" values="0 0 0 0 0 0 0 0 0 0 0 0 0 0 0 0 0 0 0.1 0"/>
<feBlend mode="normal" in2="BackgroundImageFix" result="effect1_dropShadow_3687_4142"/>
<feBlend mode="normal" in="SourceGraphic" in2="effect1_dropShadow_3687_4142" result="shape"/>
</filter>
</defs>
</svg>
