<svg width="24" height="24" viewBox="0 0 24 24" fill="none" xmlns="http://www.w3.org/2000/svg">
<path d="M12.25 2.25C10.3216 2.25 8.43657 2.82183 6.83319 3.89317C5.22982 4.96452 3.98013 6.48726 3.24218 8.26884C2.50422 10.0504 2.31114 12.0108 2.68735 13.9021C3.06355 15.7934 3.99215 17.5307 5.35571 18.8943C6.71928 20.2579 8.45656 21.1865 10.3479 21.5627C12.2392 21.9389 14.1996 21.7458 15.9812 21.0078C17.7627 20.2699 19.2855 19.0202 20.3568 17.4168C21.4282 15.8134 22 13.9284 22 12C21.9973 9.41498 20.9692 6.93661 19.1413 5.10872C17.3134 3.28084 14.835 2.25273 12.25 2.25ZM7.195 18.5156C7.73757 17.6671 8.48501 16.9688 9.36843 16.4851C10.2519 16.0013 11.2428 15.7478 12.25 15.7478C13.2572 15.7478 14.2482 16.0013 15.1316 16.4851C16.015 16.9688 16.7624 17.6671 17.305 18.5156C15.8597 19.6397 14.081 20.2499 12.25 20.2499C10.419 20.2499 8.64031 19.6397 7.195 18.5156ZM9.25 11.25C9.25 10.6567 9.42595 10.0766 9.7556 9.58329C10.0852 9.08994 10.5538 8.70542 11.102 8.47836C11.6501 8.2513 12.2533 8.19189 12.8353 8.30764C13.4172 8.4234 13.9518 8.70912 14.3713 9.12868C14.7909 9.54824 15.0766 10.0828 15.1924 10.6647C15.3081 11.2467 15.2487 11.8499 15.0216 12.398C14.7946 12.9462 14.4101 13.4148 13.9167 13.7444C13.4234 14.0741 12.8433 14.25 12.25 14.25C11.4544 14.25 10.6913 13.9339 10.1287 13.3713C9.56607 12.8087 9.25 12.0456 9.25 11.25ZM18.415 17.4759C17.5785 16.2638 16.4024 15.3261 15.0344 14.7806C15.7692 14.2019 16.3054 13.4085 16.5684 12.5108C16.8315 11.6132 16.8082 10.6559 16.502 9.77207C16.1957 8.88825 15.6216 8.12183 14.8596 7.5794C14.0975 7.03696 13.1854 6.74548 12.25 6.74548C11.3146 6.74548 10.4025 7.03696 9.64044 7.5794C8.87839 8.12183 8.30432 8.88825 7.99805 9.77207C7.69179 10.6559 7.66855 11.6132 7.93157 12.5108C8.19459 13.4085 8.7308 14.2019 9.46563 14.7806C8.09765 15.3261 6.92147 16.2638 6.085 17.4759C5.02804 16.2873 4.3372 14.8185 4.09567 13.2464C3.85415 11.6743 4.07224 10.0658 4.72368 8.61478C5.37512 7.16372 6.43213 5.93192 7.76745 5.06769C9.10276 4.20346 10.6594 3.74367 12.25 3.74367C13.8406 3.74367 15.3973 4.20346 16.7326 5.06769C18.0679 5.93192 19.1249 7.16372 19.7763 8.61478C20.4278 10.0658 20.6459 11.6743 20.4043 13.2464C20.1628 14.8185 19.472 16.2873 18.415 17.4759Z" fill="#303338"/>
</svg>
