<svg width="65" height="64" viewBox="0 0 65 64" fill="none" xmlns="http://www.w3.org/2000/svg">
<path d="M58.6228 53.8774L46.7503 41.9999C50.31 37.3611 51.972 31.5419 51.399 25.7228C50.826 19.9036 48.061 14.5203 43.6649 10.6649C39.2687 6.80942 33.5707 4.77053 27.7265 4.9618C21.8824 5.15306 16.3298 7.56016 12.1952 11.6948C8.06053 15.8294 5.65343 21.382 5.46216 27.2262C5.2709 33.0703 7.30979 38.7684 11.1652 43.1645C15.0207 47.5607 20.404 50.3257 26.2231 50.8986C32.0422 51.4716 37.8614 49.8097 42.5003 46.2499L54.3828 58.1349C54.6618 58.414 54.9931 58.6353 55.3577 58.7863C55.7223 58.9374 56.1131 59.0151 56.5078 59.0151C56.9024 59.0151 57.2932 58.9374 57.6578 58.7863C58.0224 58.6353 58.3537 58.414 58.6328 58.1349C58.9118 57.8558 59.1332 57.5246 59.2842 57.1599C59.4352 56.7953 59.513 56.4045 59.513 56.0099C59.513 55.6152 59.4352 55.2245 59.2842 54.8599C59.1332 54.4953 58.9118 54.164 58.6328 53.8849L58.6228 53.8774ZM11.5003 27.9999C11.5003 24.6376 12.4973 21.3508 14.3653 18.5552C16.2333 15.7596 18.8883 13.5806 21.9946 12.294C25.101 11.0073 28.5191 10.6706 31.8168 11.3266C35.1145 11.9825 38.1436 13.6016 40.5211 15.9791C42.8986 18.3566 44.5177 21.3857 45.1736 24.6834C45.8296 27.981 45.4929 31.3992 44.2062 34.5055C42.9195 37.6119 40.7406 40.2669 37.945 42.1349C35.1493 44.0029 31.8626 44.9999 28.5003 44.9999C23.993 44.9953 19.6717 43.2027 16.4846 40.0156C13.2975 36.8285 11.5049 32.5072 11.5003 27.9999Z" fill="url(#paint0_linear_1453_10168)"/>
<defs>
<linearGradient id="paint0_linear_1453_10168" x1="32.5602" y1="59.0151" x2="32.5602" y2="4.94945" gradientUnits="userSpaceOnUse">
<stop stop-color="#6771FC"/>
<stop offset="1" stop-color="#E3A0D8"/>
</linearGradient>
</defs>
</svg>
