<svg width="57" height="56" viewBox="0 0 57 56" fill="none" xmlns="http://www.w3.org/2000/svg">
<path d="M28.5 5.25C24.0005 5.25 19.602 6.58426 15.8608 9.08407C12.1196 11.5839 9.20364 15.1369 7.48175 19.294C5.75986 23.451 5.30933 28.0252 6.18715 32.4383C7.06496 36.8514 9.23169 40.905 12.4133 44.0867C15.595 47.2683 19.6486 49.4351 24.0617 50.3129C28.4748 51.1907 33.049 50.7401 37.2061 49.0183C41.3631 47.2964 44.9161 44.3804 47.4159 40.6392C49.9157 36.898 51.25 32.4995 51.25 28C51.2436 21.9683 48.8447 16.1854 44.5797 11.9204C40.3146 7.65528 34.5317 5.25637 28.5 5.25ZM28.5 47.25C24.6927 47.25 20.9709 46.121 17.8053 44.0058C14.6396 41.8906 12.1723 38.8841 10.7153 35.3667C9.25834 31.8492 8.87713 27.9786 9.61989 24.2445C10.3627 20.5104 12.196 17.0804 14.8882 14.3882C17.5804 11.696 21.0104 9.86265 24.7445 9.11988C28.4787 8.37712 32.3492 8.75833 35.8667 10.2153C39.3841 11.6723 42.3906 14.1396 44.5058 17.3053C46.621 20.4709 47.75 24.1927 47.75 28C47.7442 33.1036 45.7142 37.9966 42.1054 41.6054C38.4966 45.2142 33.6036 47.2442 28.5 47.25ZM25 21V35C25 35.4641 24.8156 35.9092 24.4874 36.2374C24.1593 36.5656 23.7141 36.75 23.25 36.75C22.7859 36.75 22.3408 36.5656 22.0126 36.2374C21.6844 35.9092 21.5 35.4641 21.5 35V21C21.5 20.5359 21.6844 20.0908 22.0126 19.7626C22.3408 19.4344 22.7859 19.25 23.25 19.25C23.7141 19.25 24.1593 19.4344 24.4874 19.7626C24.8156 20.0908 25 20.5359 25 21ZM35.5 21V35C35.5 35.4641 35.3156 35.9092 34.9874 36.2374C34.6593 36.5656 34.2141 36.75 33.75 36.75C33.2859 36.75 32.8408 36.5656 32.5126 36.2374C32.1844 35.9092 32 35.4641 32 35V21C32 20.5359 32.1844 20.0908 32.5126 19.7626C32.8408 19.4344 33.2859 19.25 33.75 19.25C34.2141 19.25 34.6593 19.4344 34.9874 19.7626C35.3156 20.0908 35.5 20.5359 35.5 21Z" fill="url(#paint0_linear_607_7711)"/>
<defs>
<linearGradient id="paint0_linear_607_7711" x1="28.5663" y1="50.75" x2="28.5663" y2="5.24999" gradientUnits="userSpaceOnUse">
<stop stop-color="#6771FC"/>
<stop offset="1" stop-color="#E3A0D8"/>
</linearGradient>
</defs>
</svg>
