<svg width="24" height="24" viewBox="0 0 24 24" fill="none" xmlns="http://www.w3.org/2000/svg">
<path d="M21.4687 6.52866L17.279 2.33991C17.1397 2.20059 16.9744 2.09007 16.7924 2.01467C16.6104 1.93926 16.4153 1.90045 16.2183 1.90045C16.0212 1.90045 15.8262 1.93926 15.6442 2.01467C15.4621 2.09007 15.2968 2.20059 15.1575 2.33991L3.59717 13.9002C3.45727 14.039 3.34636 14.2042 3.27088 14.3862C3.1954 14.5683 3.15685 14.7635 3.15748 14.9605V19.1502C3.15748 19.5481 3.31551 19.9296 3.59682 20.2109C3.87812 20.4922 4.25965 20.6502 4.65748 20.6502H20.4075C20.6064 20.6502 20.7972 20.5712 20.9378 20.4306C21.0785 20.2899 21.1575 20.0991 21.1575 19.9002C21.1575 19.7013 21.0785 19.5105 20.9378 19.3699C20.7972 19.2292 20.6064 19.1502 20.4075 19.1502H10.9687L21.4687 8.65023C21.6081 8.51093 21.7186 8.34556 21.794 8.16355C21.8694 7.98154 21.9082 7.78646 21.9082 7.58944C21.9082 7.39243 21.8694 7.19735 21.794 7.01534C21.7186 6.83333 21.6081 6.66796 21.4687 6.52866ZM8.84717 19.1502H4.65748V14.9605L12.9075 6.71054L17.0972 10.9002L8.84717 19.1502ZM18.1575 9.83991L13.9687 5.65023L16.2187 3.40023L20.4075 7.58991L18.1575 9.83991Z" fill="#303338"/>
</svg>
