<svg width="97" height="96" viewBox="0 0 97 96" fill="none" xmlns="http://www.w3.org/2000/svg">
<path d="M53.663 32.1864L49.2019 36.8693L45.1776 41.0807C43.9687 42.3614 40.5839 45.8186 39.7728 46.6829C38.9616 47.5471 38.4469 48.105 38.2285 48.325C37.7138 48.8671 37.316 49.3621 37.0431 49.8021C36.7623 50.2421 36.5205 50.7293 36.3021 51.2636C36.1228 51.6093 35.881 52.2457 35.5924 53.165C35.296 54.0921 34.9919 55.1057 34.6799 56.1979C34.3679 57.29 34.0716 58.3586 33.8064 59.3879C33.5178 60.4093 33.3463 61.1871 33.2761 61.7293C33.1279 62.735 33.2215 63.45 33.5568 63.8664C33.8844 64.2986 34.5473 64.44 35.5378 64.33C36.0214 64.2514 36.7467 64.0864 37.7138 63.8193C38.6887 63.5443 39.726 63.2379 40.8022 62.8686C41.8785 62.4993 42.9236 62.13 43.9219 61.745C44.9202 61.36 45.6689 61.03 46.1759 60.7629C46.6906 60.5271 47.1897 60.2207 47.6655 59.8436C48.1412 59.4507 48.5624 59.0893 48.929 58.7436C49.0771 58.6257 49.5373 58.1621 50.3094 57.345C51.0815 56.5436 52.0564 55.5064 53.2341 54.2571C54.4039 53 58.1085 49.2286 59.5748 47.7279L63.9813 43.045L75.485 30.7879L65.0888 20.1964L53.663 32.1864ZM78.9323 38.8493V56.1429V66.9229V66.8521V69.1386C78.9323 75.055 74.1436 79.8714 68.2708 79.8714H55.3788H55.371H41.6446H28.7448C22.872 79.8714 18.0911 75.055 18.0911 69.1386V66.7264V66.7029V38.8571V27.92V28.0771V25.8536C18.0911 19.9371 22.872 15.1207 28.7448 15.1207H41.6446H49.4359H53.0001H54.8173L62.0315 9H59.645H28.7448C19.7835 9 12.4446 16.1264 12.0234 25.0443H12V25.8614V26.0029V69.1464V69.9557H12.0156C12.4446 78.8736 19.7835 86 28.737 86H29.0411H67.9745H68.2708C77.2243 86 84.5632 78.8736 84.9844 69.9557H85V69.1464V32.8307L78.9323 38.8493ZM77.4738 11.42C77.0761 11.3414 76.6939 11.31 76.3352 11.3179H76.4911C76.8343 11.3336 77.1541 11.365 77.4738 11.42ZM84.0485 19.23C84.0953 18.1536 83.8145 16.9593 83.214 15.8279C82.8006 15.05 82.2469 14.3114 81.5606 13.6279C80.3283 12.4257 78.8699 11.6714 77.4738 11.42C77.1541 11.3571 76.8265 11.3257 76.4911 11.3179H76.3352C75.719 11.31 75.0873 11.4121 74.4634 11.6086C73.7926 11.8207 73.1141 12.1979 72.4668 12.7164C71.9754 13.1564 71.3437 13.7379 70.595 14.4843C69.8307 15.2229 69.1755 15.8671 68.6296 16.3936L78.9635 26.9771C79.2832 26.6864 79.6342 26.3564 80.0085 25.9714C80.3127 25.6336 80.6949 25.2564 81.1316 24.8164C81.5762 24.3843 82.0519 23.8814 82.5901 23.3079C83.097 22.7343 83.4636 22.1293 83.6975 21.5086C83.9315 20.88 84.0329 20.2514 84.0329 19.6307C84.0485 19.505 84.0485 19.3714 84.0485 19.23Z" fill="url(#paint0_linear_266_6412)"/>
<defs>
<linearGradient id="paint0_linear_266_6412" x1="48.6064" y1="86" x2="48.6064" y2="8.99998" gradientUnits="userSpaceOnUse">
<stop stop-color="#6771FC"/>
<stop offset="1" stop-color="#E3A0D8"/>
</linearGradient>
</defs>
</svg>
