<svg width="97" height="96" viewBox="0 0 97 96" fill="none" xmlns="http://www.w3.org/2000/svg">
<path d="M78.5 12H18.5C16.9087 12 15.3826 12.6321 14.2574 13.7574C13.1321 14.8826 12.5 16.4087 12.5 18V78C12.5 79.5913 13.1321 81.1174 14.2574 82.2426C15.3826 83.3679 16.9087 84 18.5 84H78.5C80.0913 84 81.6174 83.3679 82.7426 82.2426C83.8679 81.1174 84.5 79.5913 84.5 78V18C84.5 16.4087 83.8679 14.8826 82.7426 13.7574C81.6174 12.6321 80.0913 12 78.5 12ZM18.5 18H78.5V47.0175L69.2412 37.755C68.1161 36.6306 66.5906 35.999 65 35.999C63.4094 35.999 61.8839 36.6306 60.7588 37.755L20.5138 78H18.5V18ZM78.5 78H29L65 42L78.5 55.5V78ZM36.5 45C38.28 45 40.0201 44.4722 41.5001 43.4832C42.9802 42.4943 44.1337 41.0887 44.8149 39.4442C45.4961 37.7996 45.6743 35.99 45.3271 34.2442C44.9798 32.4984 44.1226 30.8947 42.864 29.636C41.6053 28.3774 40.0016 27.5202 38.2558 27.1729C36.51 26.8257 34.7004 27.0039 33.0558 27.6851C31.4113 28.3663 30.0057 29.5198 29.0168 30.9999C28.0278 32.4799 27.5 34.22 27.5 36C27.5 38.3869 28.4482 40.6761 30.136 42.364C31.8239 44.0518 34.1131 45 36.5 45ZM36.5 33C37.0933 33 37.6734 33.1759 38.1667 33.5056C38.6601 33.8352 39.0446 34.3038 39.2716 34.8519C39.4987 35.4001 39.5581 36.0033 39.4424 36.5853C39.3266 37.1672 39.0409 37.7018 38.6213 38.1213C38.2018 38.5409 37.6672 38.8266 37.0853 38.9424C36.5033 39.0581 35.9001 38.9987 35.3519 38.7716C34.8038 38.5446 34.3352 38.1601 34.0056 37.6667C33.6759 37.1734 33.5 36.5933 33.5 36C33.5 35.2044 33.8161 34.4413 34.3787 33.8787C34.9413 33.3161 35.7044 33 36.5 33Z" fill="url(#paint0_linear_266_6357)"/>
<defs>
<linearGradient id="paint0_linear_266_6357" x1="48.605" y1="84" x2="48.6049" y2="12" gradientUnits="userSpaceOnUse">
<stop stop-color="#6771FC"/>
<stop offset="1" stop-color="#E3A0D8"/>
</linearGradient>
</defs>
</svg>
