<svg width="22" height="19" viewBox="0 0 22 19" fill="none" xmlns="http://www.w3.org/2000/svg">
<path d="M15.7012 0.193359C13.7652 0.193359 12.0702 1.02586 11.0137 2.43305C9.95711 1.02586 8.26211 0.193359 6.32617 0.193359C4.78513 0.195096 3.30771 0.808041 2.21803 1.89772C1.12835 2.9874 0.515409 4.46482 0.513672 6.00586C0.513672 12.5684 10.244 17.8802 10.6584 18.0996C10.7676 18.1584 10.8897 18.1891 11.0137 18.1891C11.1377 18.1891 11.2598 18.1584 11.369 18.0996C11.7834 17.8802 21.5137 12.5684 21.5137 6.00586C21.5119 4.46482 20.899 2.9874 19.8093 1.89772C18.7196 0.808041 17.2422 0.195096 15.7012 0.193359ZM11.0137 16.5809C9.3018 15.5834 2.01367 11.0393 2.01367 6.00586C2.01516 4.86257 2.46999 3.76653 3.27842 2.95811C4.08685 2.14968 5.18288 1.69485 6.32617 1.69336C8.14961 1.69336 9.68055 2.66461 10.3199 4.22461C10.3764 4.36217 10.4726 4.47982 10.5961 4.56262C10.7196 4.64542 10.865 4.68963 11.0137 4.68963C11.1624 4.68963 11.3077 4.64542 11.4313 4.56262C11.5548 4.47982 11.6509 4.36217 11.7074 4.22461C12.3468 2.6618 13.8777 1.69336 15.7012 1.69336C16.8445 1.69485 17.9405 2.14968 18.7489 2.95811C19.5574 3.76653 20.0122 4.86257 20.0137 6.00586C20.0137 11.0318 12.7237 15.5824 11.0137 16.5809Z" fill="#EB5757"/>
<path d="M11.0137 16.5809C9.3018 15.5834 2.01367 11.0393 2.01367 6.00586C2.01516 4.86257 2.46999 3.76653 3.27842 2.95811C4.08685 2.14968 5.18288 1.69485 6.32617 1.69336C8.14961 1.69336 9.68055 2.66461 10.3199 4.22461C10.3764 4.36217 10.4726 4.47982 10.5961 4.56262C10.7196 4.64542 10.865 4.68963 11.0137 4.68963C11.1624 4.68963 11.3077 4.64542 11.4313 4.56262C11.5548 4.47982 11.6509 4.36217 11.7074 4.22461C12.3468 2.6618 13.8777 1.69336 15.7012 1.69336C16.8445 1.69485 17.9405 2.14968 18.7489 2.95811C19.5574 3.76653 20.0122 4.86257 20.0137 6.00586C20.0137 11.0318 12.7237 15.5824 11.0137 16.5809Z" fill="#EB5757"/>
</svg>
