<svg width="24" height="24" viewBox="0 0 24 24" fill="none" xmlns="http://www.w3.org/2000/svg">
<path d="M12.2349 7.95988C11.3449 7.95988 10.4749 8.2238 9.73484 8.71827C8.99482 9.21274 8.41804 9.91554 8.07745 10.7378C7.73685 11.5601 7.64774 12.4649 7.82137 13.3378C7.99501 14.2107 8.42359 15.0125 9.05293 15.6419C9.68226 16.2712 10.4841 16.6998 11.357 16.8734C12.2299 17.0471 13.1347 16.9579 13.957 16.6173C14.7793 16.2767 15.4821 15.7 15.9765 14.9599C16.471 14.2199 16.7349 13.3499 16.7349 12.4599C16.7337 11.2668 16.2592 10.1229 15.4155 9.27927C14.5719 8.43563 13.428 7.96112 12.2349 7.95988ZM12.2349 15.4599C11.6416 15.4599 11.0615 15.2839 10.5682 14.9543C10.0748 14.6246 9.69033 14.1561 9.46327 13.6079C9.2362 13.0598 9.17679 12.4566 9.29255 11.8746C9.40831 11.2927 9.69403 10.7581 10.1136 10.3386C10.5331 9.919 11.0677 9.63328 11.6496 9.51753C12.2316 9.40177 12.8348 9.46118 13.383 9.68824C13.9311 9.91531 14.3997 10.2998 14.7293 10.7932C15.059 11.2865 15.2349 11.8665 15.2349 12.4599C15.2349 13.2555 14.9188 14.0186 14.3562 14.5812C13.7936 15.1438 13.0306 15.4599 12.2349 15.4599ZM20.4849 12.6624C20.4887 12.5274 20.4887 12.3924 20.4849 12.2574L21.8837 10.5099C21.957 10.4181 22.0078 10.3104 22.0319 10.1955C22.056 10.0805 22.0527 9.96149 22.0224 9.84801C21.7931 8.98607 21.4501 8.15849 21.0024 7.38707C20.9438 7.28612 20.8624 7.20024 20.7648 7.13628C20.6671 7.07232 20.5559 7.03203 20.4399 7.01863L18.2162 6.77113C18.1237 6.67363 18.0299 6.57988 17.9349 6.48988L17.6724 4.26051C17.6589 4.14446 17.6185 4.03316 17.5543 3.9355C17.4902 3.83784 17.4042 3.75652 17.303 3.69801C16.5313 3.25114 15.7038 2.90848 14.8421 2.67894C14.7285 2.64875 14.6095 2.64567 14.4945 2.66993C14.3795 2.69419 14.2719 2.74513 14.1802 2.81863L12.4374 4.20988C12.3024 4.20988 12.1674 4.20988 12.0324 4.20988L10.2849 2.81394C10.1932 2.7406 10.0855 2.68984 9.9705 2.66574C9.85553 2.64164 9.73651 2.64488 9.62303 2.67519C8.76123 2.90491 7.93371 3.2479 7.16209 3.69519C7.06114 3.75381 6.97527 3.83519 6.9113 3.93284C6.84734 4.03049 6.80706 4.14173 6.79366 4.25769L6.54616 6.48519C6.44866 6.57832 6.35491 6.67207 6.26491 6.76644L4.03553 7.02238C3.91948 7.03588 3.80819 7.07631 3.71053 7.14044C3.61287 7.20457 3.53154 7.29063 3.47303 7.39176C3.02617 8.16347 2.6835 8.99098 2.45397 9.8527C2.42378 9.96625 2.42069 10.0853 2.44495 10.2003C2.46922 10.3152 2.52015 10.4229 2.59366 10.5146L3.98491 12.2574C3.98491 12.3924 3.98491 12.5274 3.98491 12.6624L2.58897 14.4099C2.51563 14.5016 2.46486 14.6093 2.44076 14.7243C2.41666 14.8393 2.4199 14.9583 2.45022 15.0718C2.67952 15.9337 3.02253 16.7613 3.47022 17.5327C3.52884 17.6336 3.61021 17.7195 3.70786 17.7835C3.80552 17.8474 3.91675 17.8877 4.03272 17.9011L6.25647 18.1486C6.34959 18.2461 6.44334 18.3399 6.53772 18.4299L6.79741 20.6593C6.81091 20.7753 6.85134 20.8866 6.91547 20.9843C6.9796 21.0819 7.06565 21.1632 7.16678 21.2218C7.9385 21.6686 8.76601 22.0113 9.62772 22.2408C9.74127 22.271 9.86033 22.2741 9.9753 22.2498C10.0903 22.2256 10.1979 22.1746 10.2896 22.1011L12.0324 20.7099C12.1674 20.7136 12.3024 20.7136 12.4374 20.7099L14.1849 22.1086C14.2767 22.182 14.3844 22.2327 14.4993 22.2568C14.6143 22.2809 14.7333 22.2777 14.8468 22.2474C15.7087 22.0181 16.5363 21.6751 17.3077 21.2274C17.4087 21.1688 17.4945 21.0874 17.5585 20.9897C17.6225 20.8921 17.6628 20.7808 17.6762 20.6649L17.9237 18.4411C18.0212 18.3486 18.1149 18.2549 18.2049 18.1599L20.4343 17.8974C20.5503 17.8839 20.6616 17.8435 20.7593 17.7793C20.8569 17.7152 20.9383 17.6291 20.9968 17.528C21.4436 16.7563 21.7863 15.9288 22.0158 15.0671C22.046 14.9535 22.0491 14.8345 22.0249 14.7195C22.0006 14.6045 21.9497 14.4969 21.8762 14.4052L20.4849 12.6624ZM18.9755 12.053C18.9915 12.324 18.9915 12.5957 18.9755 12.8668C18.9644 13.0523 19.0225 13.2354 19.1387 13.3805L20.469 15.0427C20.3163 15.5278 20.1209 15.9984 19.8849 16.4489L17.7662 16.6889C17.5816 16.7094 17.4113 16.7976 17.288 16.9364C17.1076 17.1394 16.9154 17.3316 16.7124 17.5121C16.5736 17.6353 16.4854 17.8057 16.4649 17.9902L16.2296 20.1071C15.7791 20.3431 15.3085 20.5386 14.8233 20.6911L13.1602 19.3608C13.0271 19.2545 12.8618 19.1966 12.6915 19.1968H12.6465C12.3755 19.2127 12.1037 19.2127 11.8327 19.1968C11.6472 19.1856 11.4641 19.2437 11.319 19.3599L9.65209 20.6911C9.16697 20.5385 8.69637 20.343 8.24584 20.1071L8.00584 17.9911C7.98536 17.8066 7.89718 17.6363 7.75834 17.513C7.55538 17.3325 7.36318 17.1403 7.18272 16.9374C7.05947 16.7986 6.88911 16.7104 6.70459 16.6899L4.58772 16.4536C4.35165 16.0032 4.15619 15.5326 4.00366 15.0474L5.33397 13.3843C5.45013 13.2391 5.50826 13.0561 5.49709 12.8705C5.48116 12.5995 5.48116 12.3278 5.49709 12.0568C5.50826 11.8712 5.45013 11.6881 5.33397 11.543L4.00366 9.87707C4.1563 9.39194 4.35176 8.92134 4.58772 8.47082L6.70366 8.23082C6.88817 8.21034 7.05853 8.12215 7.18178 7.98332C7.36224 7.78036 7.55445 7.58815 7.75741 7.40769C7.89679 7.28436 7.98534 7.11361 8.00584 6.92863L8.24116 4.81269C8.69163 4.57662 9.16224 4.38116 9.64741 4.22863L11.3105 5.55894C11.4556 5.67511 11.6387 5.73324 11.8243 5.72207C12.0953 5.70613 12.367 5.70613 12.638 5.72207C12.8236 5.73324 13.0067 5.67511 13.1518 5.55894L14.8177 4.22863C15.3028 4.38128 15.7734 4.57674 16.224 4.81269L16.464 6.92863C16.4845 7.11315 16.5726 7.28351 16.7115 7.40676C16.9144 7.58722 17.1066 7.77942 17.2871 7.98238C17.4103 8.12121 17.5807 8.2094 17.7652 8.22988L19.8821 8.46519C20.1182 8.91567 20.3136 9.38628 20.4662 9.87144L19.1358 11.5346C19.0186 11.6809 18.9604 11.8659 18.9727 12.053H18.9755Z" fill="#303338"/>
</svg>
