<svg width="725" height="352" viewBox="0 0 725 352" fill="none" xmlns="http://www.w3.org/2000/svg">
<mask id="mask0_1193_7519" style="mask-type:luminance" maskUnits="userSpaceOnUse" x="-269" y="-177" width="1252" height="728">
<path d="M983 -177H-269V551H983V-177Z" fill="white"/>
</mask>
<g mask="url(#mask0_1193_7519)">
<mask id="mask1_1193_7519" style="mask-type:luminance" maskUnits="userSpaceOnUse" x="-269" y="-177" width="1252" height="728">
<path d="M983 -177H-269V551H983V-177Z" fill="white"/>
</mask>
<g mask="url(#mask1_1193_7519)">
<mask id="mask2_1193_7519" style="mask-type:luminance" maskUnits="userSpaceOnUse" x="-269" y="-177" width="1252" height="728">
<path d="M983 -177H-269V551H983V-177Z" fill="white"/>
</mask>
<g mask="url(#mask2_1193_7519)">
<g filter="url(#filter0_f_1193_7519)">
<path d="M37 176.285L37.136 194L205.131 192.715L204.995 175L37 176.285Z" fill="url(#paint0_linear_1193_7519)"/>
</g>
<g filter="url(#filter1_f_1193_7519)">
<path d="M37 98.285L37.136 116L205.131 114.715L204.995 97L37 98.285Z" fill="url(#paint1_linear_1193_7519)"/>
</g>
<path d="M511.448 210.936V56.722C511.448 41.273 531.175 34.795 540.333 47.236L645.06 189.492C651.47 198.199 664.493 198.173 670.868 189.44L671.501 188.573M675.501 149.149V29.416" stroke="url(#paint2_linear_1193_7519)" stroke-width="33"/>
<path d="M511.448 210.936V56.722C511.448 41.273 531.175 34.795 540.333 47.236L645.06 189.492C651.47 198.199 664.493 198.173 670.868 189.44L671.501 188.573M675.501 149.149V89.283V29.416" stroke="url(#paint3_linear_1193_7519)" stroke-opacity="0.2" stroke-width="33"/>
<g filter="url(#filter2_f_1193_7519)">
<path fill-rule="evenodd" clip-rule="evenodd" d="M527.768 42.854C519.27 47.613 516.989 57.83 522.673 65.675L525.578 69.685L525.769 62.13C525.842 59.279 529.479 58.107 531.179 60.388L616 176C617.886 175.615 642.286 205.46 644 204.5C662 214 688 206 677 195.5L651.5 179.5L557 45.5C551.317 37.654 536.265 38.096 527.768 42.854Z" fill="url(#paint4_linear_1193_7519)"/>
</g>
<g filter="url(#filter3_f_1193_7519)">
<path d="M518 61.057L525.585 61L526.761 210.296L519.176 210.354L518 61.057Z" fill="url(#paint5_linear_1193_7519)"/>
</g>
<g filter="url(#filter4_f_1193_7519)">
<path d="M691.487 140.523L691.341 35.432C691.336 32.037 686.768 29.374 681.137 29.483C675.507 29.592 670.946 32.432 670.951 35.827L671.098 140.918C671.102 144.313 675.67 146.976 681.301 146.867C686.931 146.758 691.492 143.918 691.487 140.523Z" fill="url(#paint6_linear_1193_7519)" fill-opacity="0.7"/>
</g>
<g filter="url(#filter5_f_1193_7519)">
<path d="M518.485 60.717L519.618 206.871C519.647 210.581 517.782 213.617 515.454 213.652C513.125 213.687 511.214 210.709 511.186 206.999L510.052 60.845C510.024 57.136 511.888 54.1 514.216 54.064C516.545 54.029 518.456 57.007 518.485 60.717Z" fill="url(#paint7_linear_1193_7519)" fill-opacity="0.5"/>
</g>
<g opacity="0.88" filter="url(#filter6_f_1193_7519)">
<path opacity="0.47" d="M656.608 178.457L556.045 40.859C553.492 37.367 550.669 35.049 549.739 35.682C548.808 36.315 550.124 39.66 552.676 43.152L653.239 180.75C655.791 184.243 658.615 186.561 659.545 185.928C660.475 185.294 659.16 181.95 656.608 178.457Z" fill="url(#paint8_linear_1193_7519)" fill-opacity="0.5"/>
</g>
<path d="M422.334 212H278.091C267.564 212 259.03 203.466 259.03 192.939C259.03 182.413 267.564 173.879 278.091 173.879H422.334C432.861 173.879 441.394 182.413 441.394 192.939C441.394 203.466 432.861 212 422.334 212Z" fill="url(#paint9_linear_1193_7519)"/>
<g filter="url(#filter7_f_1193_7519)">
<path d="M422.078 178.182H277.922C276.308 178.182 275 177.47 275 176.591C275 175.713 276.308 175 277.922 175H422.078C423.692 175 425 175.713 425 176.591C425 177.47 423.692 178.182 422.078 178.182Z" fill="white"/>
</g>
<g filter="url(#filter8_f_1193_7519)">
<path d="M651.058 177.547L547.683 37.535C546.526 35.968 546.161 34.274 546.868 33.752C547.575 33.23 549.086 34.078 550.243 35.645L653.618 175.657C654.775 177.224 655.14 178.918 654.433 179.44C653.726 179.962 652.215 179.114 651.058 177.547Z" fill="white"/>
</g>
<path d="M271.393 58V106.364C271.393 115.2 278.557 122.364 287.393 122.364H415.09C423.927 122.364 431.09 115.2 431.09 106.364V81.667V58C431.09 49.164 423.927 42 415.09 42H287.393C278.557 42 271.393 49.164 271.393 58Z" stroke="url(#paint10_linear_1193_7519)" stroke-width="33"/>
<g opacity="0.73" filter="url(#filter9_f_1193_7519)">
<path d="M413.923 112H289.077C288.482 112 288 110.853 288 109.439C288 108.025 288.482 106.878 289.077 106.878H413.923C414.518 106.878 415 108.025 415 109.439C415 110.853 414.518 112 413.923 112Z" fill="white"/>
</g>
<g opacity="0.64" filter="url(#filter10_f_1193_7519)">
<path d="M412.262 30.061H289.073C288.48 30.061 288 29.6 288 29.03C288 28.461 288.48 28 289.073 28H412.262C412.855 28 413.335 28.461 413.335 29.03C413.335 29.6 412.855 30.061 412.262 30.061Z" fill="white"/>
</g>
<path d="M55.314 333.46C53.886 333.46 52.815 333.103 52.101 332.389C51.387 331.675 51.03 330.604 51.03 329.176V272.974H31.242C29.814 272.974 28.743 272.617 28.029 271.903C27.315 271.189 26.958 270.118 26.958 268.69C26.958 267.262 27.315 266.191 28.029 265.477C28.743 264.763 29.814 264.406 31.242 264.406H79.386C80.814 264.406 81.885 264.763 82.599 265.477C83.313 266.191 83.67 267.262 83.67 268.69C83.67 270.118 83.313 271.189 82.599 271.903C81.885 272.617 80.814 272.974 79.386 272.974H59.598V329.176C59.598 330.536 59.224 331.59 58.476 332.338C57.762 333.086 56.708 333.46 55.314 333.46ZM238.634 333.664C237.512 334.378 236.441 334.599 235.421 334.327C234.401 334.055 233.534 333.358 232.82 332.236L217.01 305.92H202.73V329.176C202.73 332.032 201.302 333.46 198.446 333.46C195.59 333.46 194.162 332.032 194.162 329.176V268.588C194.162 265.732 195.59 264.304 198.446 264.304H222.314C228.536 264.304 233.296 265.97 236.594 269.302C239.926 272.6 241.592 277.36 241.592 283.582V286.642C241.592 292.048 240.334 296.366 237.818 299.596C235.302 302.792 231.664 304.781 226.904 305.563L240.266 327.85C241.558 330.23 241.014 332.168 238.634 333.664ZM202.73 297.352H222.314C226.19 297.352 228.944 296.536 230.576 294.904C232.208 293.272 233.024 290.518 233.024 286.642V283.582C233.024 279.74 232.208 277.003 230.576 275.371C228.944 273.705 226.19 272.872 222.314 272.872H202.73V297.352ZM359.096 333.46C357.634 333.46 356.546 333.12 355.832 332.44C355.152 331.726 354.812 330.638 354.812 329.176V268.69C354.812 267.194 355.152 266.106 355.832 265.426C356.546 264.746 357.634 264.406 359.096 264.406C360.592 264.406 361.68 264.746 362.36 265.426C363.04 266.106 363.38 267.194 363.38 268.69V329.176C363.38 330.638 363.04 331.726 362.36 332.44C361.68 333.12 360.592 333.46 359.096 333.46ZM485.78 333.46C482.924 333.46 481.496 332.032 481.496 329.176V268.588C481.496 265.732 482.924 264.304 485.78 264.304H512.402C517.808 264.304 521.956 265.732 524.846 268.588C527.77 271.444 529.232 275.524 529.232 280.828V283.582C529.232 288.172 527.787 291.725 524.897 294.241C530.303 297.267 533.006 302.792 533.006 310.816V314.284C533.006 320.54 531.34 325.3 528.008 328.564C524.71 331.828 519.95 333.46 513.728 333.46H485.78ZM490.064 324.892H513.728C517.57 324.892 520.307 324.076 521.939 322.444C523.605 320.778 524.438 318.058 524.438 314.284V310.816C524.438 307.042 523.639 304.356 522.041 302.758C520.443 301.126 517.672 300.31 513.728 300.31H490.064V324.892ZM490.064 291.742H514.238C516.72 291.742 518.403 290.977 519.287 289.447C520.205 287.917 520.664 285.962 520.664 283.582V280.828C520.664 277.87 520.052 275.813 518.828 274.657C517.604 273.467 515.462 272.872 512.402 272.872H490.064V291.742ZM651.31 333.46C648.454 333.46 647.026 332.032 647.026 329.176V268.588C647.026 265.732 648.454 264.304 651.31 264.304H687.928C690.784 264.304 692.212 265.732 692.212 268.588C692.212 271.444 690.784 272.872 687.928 272.872H655.594V294.292H675.892C678.748 294.292 680.176 295.72 680.176 298.576C680.176 301.432 678.748 302.86 675.892 302.86H655.594V324.892H687.928C690.784 324.892 692.212 326.32 692.212 329.176C692.212 332.032 690.784 333.46 687.928 333.46H651.31Z" fill="#303338"/>
<path d="M186.276 26H45.724C35.383 26 27 34.383 27 44.724C27 55.065 35.383 63.449 45.724 63.449H186.276C196.617 63.449 205 55.065 205 44.724C205 34.383 196.617 26 186.276 26Z" fill="url(#paint11_linear_1193_7519)"/>
<g filter="url(#filter11_f_1193_7519)">
<path d="M191.907 29.036H43.11C41.433 29.036 40.073 30.396 40.073 32.072C40.073 33.748 41.433 35.109 43.11 35.109H191.907C193.584 35.109 194.943 33.749 194.943 32.072C194.943 30.396 193.584 29.036 191.907 29.036Z" fill="white"/>
</g>
<path d="M205.073 114.054H60.146C51.309 114.054 44.146 121.218 44.146 130.054V177C44.146 185.836 51.309 193 60.146 193H205.073" stroke="url(#paint12_linear_1193_7519)" stroke-width="33"/>
<g filter="url(#filter12_f_1193_7519)">
<path d="M202.775 98.933H65.176C64.527 98.933 64 99.386 64 99.945C64 100.504 64.527 100.957 65.176 100.957H202.775C203.424 100.957 203.951 100.504 203.951 99.945C203.951 99.386 203.424 98.933 202.775 98.933Z" fill="white"/>
</g>
<g filter="url(#filter13_f_1193_7519)">
<path d="M204.705 177.866H62.295C61.58 177.866 61 178.319 61 178.878C61 179.437 61.58 179.89 62.295 179.89H204.705C205.42 179.89 206 179.437 206 178.878C206 178.319 205.42 177.866 204.705 177.866Z" fill="white"/>
</g>
<g filter="url(#filter14_f_1193_7519)">
<path d="M26 64H205V30H26V64Z" fill="#E3A0D8"/>
</g>
</g>
</g>
</g>
<defs>
<filter id="filter0_f_1193_7519" x="26" y="164" width="190.131" height="41" filterUnits="userSpaceOnUse" color-interpolation-filters="sRGB">
<feFlood flood-opacity="0" result="BackgroundImageFix"/>
<feBlend mode="normal" in="SourceGraphic" in2="BackgroundImageFix" result="shape"/>
<feGaussianBlur stdDeviation="5.5" result="effect1_foregroundBlur_1193_7519"/>
</filter>
<filter id="filter1_f_1193_7519" x="26" y="86" width="190.131" height="41" filterUnits="userSpaceOnUse" color-interpolation-filters="sRGB">
<feFlood flood-opacity="0" result="BackgroundImageFix"/>
<feBlend mode="normal" in="SourceGraphic" in2="BackgroundImageFix" result="shape"/>
<feGaussianBlur stdDeviation="5.5" result="effect1_foregroundBlur_1193_7519"/>
</filter>
<filter id="filter2_f_1193_7519" x="512.546" y="32.4141" width="174.079" height="183.323" filterUnits="userSpaceOnUse" color-interpolation-filters="sRGB">
<feFlood flood-opacity="0" result="BackgroundImageFix"/>
<feBlend mode="normal" in="SourceGraphic" in2="BackgroundImageFix" result="shape"/>
<feGaussianBlur stdDeviation="3.5" result="effect1_foregroundBlur_1193_7519"/>
</filter>
<filter id="filter3_f_1193_7519" x="510" y="53" width="24.761" height="165.354" filterUnits="userSpaceOnUse" color-interpolation-filters="sRGB">
<feFlood flood-opacity="0" result="BackgroundImageFix"/>
<feBlend mode="normal" in="SourceGraphic" in2="BackgroundImageFix" result="shape"/>
<feGaussianBlur stdDeviation="4" result="effect1_foregroundBlur_1193_7519"/>
</filter>
<filter id="filter4_f_1193_7519" x="666.951" y="25.4797" width="28.536" height="125.391" filterUnits="userSpaceOnUse" color-interpolation-filters="sRGB">
<feFlood flood-opacity="0" result="BackgroundImageFix"/>
<feBlend mode="normal" in="SourceGraphic" in2="BackgroundImageFix" result="shape"/>
<feGaussianBlur stdDeviation="2" result="effect1_foregroundBlur_1193_7519"/>
</filter>
<filter id="filter5_f_1193_7519" x="506.052" y="50.0637" width="17.5667" height="167.589" filterUnits="userSpaceOnUse" color-interpolation-filters="sRGB">
<feFlood flood-opacity="0" result="BackgroundImageFix"/>
<feBlend mode="normal" in="SourceGraphic" in2="BackgroundImageFix" result="shape"/>
<feGaussianBlur stdDeviation="2" result="effect1_foregroundBlur_1193_7519"/>
</filter>
<filter id="filter6_f_1193_7519" x="545.44" y="31.5779" width="118.404" height="158.454" filterUnits="userSpaceOnUse" color-interpolation-filters="sRGB">
<feFlood flood-opacity="0" result="BackgroundImageFix"/>
<feBlend mode="normal" in="SourceGraphic" in2="BackgroundImageFix" result="shape"/>
<feGaussianBlur stdDeviation="2" result="effect1_foregroundBlur_1193_7519"/>
</filter>
<filter id="filter7_f_1193_7519" x="271" y="171" width="158" height="11.182" filterUnits="userSpaceOnUse" color-interpolation-filters="sRGB">
<feFlood flood-opacity="0" result="BackgroundImageFix"/>
<feBlend mode="normal" in="SourceGraphic" in2="BackgroundImageFix" result="shape"/>
<feGaussianBlur stdDeviation="2" result="effect1_foregroundBlur_1193_7519"/>
</filter>
<filter id="filter8_f_1193_7519" x="542.508" y="29.598" width="116.286" height="153.996" filterUnits="userSpaceOnUse" color-interpolation-filters="sRGB">
<feFlood flood-opacity="0" result="BackgroundImageFix"/>
<feBlend mode="normal" in="SourceGraphic" in2="BackgroundImageFix" result="shape"/>
<feGaussianBlur stdDeviation="2" result="effect1_foregroundBlur_1193_7519"/>
</filter>
<filter id="filter9_f_1193_7519" x="284" y="102.878" width="135" height="13.1221" filterUnits="userSpaceOnUse" color-interpolation-filters="sRGB">
<feFlood flood-opacity="0" result="BackgroundImageFix"/>
<feBlend mode="normal" in="SourceGraphic" in2="BackgroundImageFix" result="shape"/>
<feGaussianBlur stdDeviation="2" result="effect1_foregroundBlur_1193_7519"/>
</filter>
<filter id="filter10_f_1193_7519" x="284" y="24" width="133.335" height="10.061" filterUnits="userSpaceOnUse" color-interpolation-filters="sRGB">
<feFlood flood-opacity="0" result="BackgroundImageFix"/>
<feBlend mode="normal" in="SourceGraphic" in2="BackgroundImageFix" result="shape"/>
<feGaussianBlur stdDeviation="2" result="effect1_foregroundBlur_1193_7519"/>
</filter>
<filter id="filter11_f_1193_7519" x="36.073" y="25.036" width="162.87" height="14.073" filterUnits="userSpaceOnUse" color-interpolation-filters="sRGB">
<feFlood flood-opacity="0" result="BackgroundImageFix"/>
<feBlend mode="normal" in="SourceGraphic" in2="BackgroundImageFix" result="shape"/>
<feGaussianBlur stdDeviation="2" result="effect1_foregroundBlur_1193_7519"/>
</filter>
<filter id="filter12_f_1193_7519" x="60" y="94.933" width="147.951" height="10.024" filterUnits="userSpaceOnUse" color-interpolation-filters="sRGB">
<feFlood flood-opacity="0" result="BackgroundImageFix"/>
<feBlend mode="normal" in="SourceGraphic" in2="BackgroundImageFix" result="shape"/>
<feGaussianBlur stdDeviation="2" result="effect1_foregroundBlur_1193_7519"/>
</filter>
<filter id="filter13_f_1193_7519" x="57" y="173.866" width="153" height="10.024" filterUnits="userSpaceOnUse" color-interpolation-filters="sRGB">
<feFlood flood-opacity="0" result="BackgroundImageFix"/>
<feBlend mode="normal" in="SourceGraphic" in2="BackgroundImageFix" result="shape"/>
<feGaussianBlur stdDeviation="2" result="effect1_foregroundBlur_1193_7519"/>
</filter>
<filter id="filter14_f_1193_7519" x="0" y="4" width="231" height="86" filterUnits="userSpaceOnUse" color-interpolation-filters="sRGB">
<feFlood flood-opacity="0" result="BackgroundImageFix"/>
<feBlend mode="normal" in="SourceGraphic" in2="BackgroundImageFix" result="shape"/>
<feGaussianBlur stdDeviation="13" result="effect1_foregroundBlur_1193_7519"/>
</filter>
<linearGradient id="paint0_linear_1193_7519" x1="37.068" y1="185.143" x2="205.063" y2="183.858" gradientUnits="userSpaceOnUse">
<stop offset="0.00384615" stop-color="#D9D9D9" stop-opacity="0"/>
<stop offset="0.507692" stop-color="#72EBF6"/>
<stop offset="1" stop-color="#D9D9D9" stop-opacity="0"/>
</linearGradient>
<linearGradient id="paint1_linear_1193_7519" x1="37.068" y1="107.142" x2="205.063" y2="105.857" gradientUnits="userSpaceOnUse">
<stop offset="0.00384615" stop-color="#D9D9D9" stop-opacity="0"/>
<stop offset="0.507692" stop-color="#72EBF6"/>
<stop offset="1" stop-color="#D9D9D9" stop-opacity="0"/>
</linearGradient>
<linearGradient id="paint2_linear_1193_7519" x1="526.949" y1="32.336" x2="642.671" y2="218.715" gradientUnits="userSpaceOnUse">
<stop stop-color="#E3A0D8"/>
<stop offset="0.427589" stop-color="#676DFC"/>
<stop offset="0.726328" stop-color="#676DFC"/>
<stop offset="1" stop-color="#9DA0F5"/>
</linearGradient>
<linearGradient id="paint3_linear_1193_7519" x1="511.448" y1="55.698" x2="511" y2="193" gradientUnits="userSpaceOnUse">
<stop stop-color="#E3A0D8"/>
<stop offset="0.458383" stop-color="#676DFC"/>
<stop offset="1" stop-color="#E3A0D8"/>
</linearGradient>
<linearGradient id="paint4_linear_1193_7519" x1="553.5" y1="70" x2="661" y2="215" gradientUnits="userSpaceOnUse">
<stop stop-color="#E3A0D8"/>
<stop offset="0.732292" stop-color="#676DFC"/>
</linearGradient>
<linearGradient id="paint5_linear_1193_7519" x1="521.749" y1="55.405" x2="522.872" y2="204.703" gradientUnits="userSpaceOnUse">
<stop stop-color="#676DFC"/>
<stop offset="0.56926" stop-color="#9DA0F5"/>
</linearGradient>
<linearGradient id="paint6_linear_1193_7519" x1="691.118" y1="19.267" x2="678.199" y2="19.354" gradientUnits="userSpaceOnUse">
<stop stop-color="white"/>
<stop offset="1" stop-color="white" stop-opacity="0"/>
</linearGradient>
<linearGradient id="paint7_linear_1193_7519" x1="514.471" y1="208.757" x2="514.289" y2="54.596" gradientUnits="userSpaceOnUse">
<stop stop-color="white"/>
<stop offset="1" stop-color="white" stop-opacity="0"/>
</linearGradient>
<linearGradient id="paint8_linear_1193_7519" x1="552.739" y1="40.561" x2="554.071" y2="39.592" gradientUnits="userSpaceOnUse">
<stop stop-color="white"/>
<stop offset="1" stop-color="white" stop-opacity="0"/>
</linearGradient>
<linearGradient id="paint9_linear_1193_7519" x1="422" y1="287" x2="350.212" y2="173.879" gradientUnits="userSpaceOnUse">
<stop stop-color="#E3A0D8"/>
<stop offset="1" stop-color="#676DFC"/>
</linearGradient>
<linearGradient id="paint10_linear_1193_7519" x1="534" y1="313" x2="361.065" y2="30.152" gradientUnits="userSpaceOnUse">
<stop stop-color="#E3A0D8"/>
<stop offset="0.185417" stop-color="#676DFC"/>
<stop offset="0.477083" stop-color="#E3A0D8"/>
<stop offset="0.685417" stop-color="#676DFC"/>
<stop offset="1" stop-color="#E3A0D8"/>
</linearGradient>
<linearGradient id="paint11_linear_1193_7519" x1="116" y1="26" x2="116" y2="63.448" gradientUnits="userSpaceOnUse">
<stop stop-color="#E3A0D8"/>
<stop offset="1" stop-color="#D244BB"/>
</linearGradient>
<linearGradient id="paint12_linear_1193_7519" x1="124.847" y1="100.391" x2="205" y2="365" gradientUnits="userSpaceOnUse">
<stop stop-color="#E3A0D8"/>
<stop offset="0.228155" stop-color="#676DFC"/>
<stop offset="0.779167" stop-color="#E3A0D8"/>
<stop offset="1" stop-color="#676DFC"/>
</linearGradient>
</defs>
</svg>
